<svg xmlns="http://www.w3.org/2000/svg" width="1024" height="1024"><path d="M510.552 629.354c0 21.5-5.9721 39.4166-17.9166 53.75-11.9444 14.3332-27.1735 21.2013-45.6874 20.604H190.74c-17.9166 0-32.8471-6.868-44.7916-20.604-11.9444-13.7362-18.2152-31.6528-18.8124-53.75-.5972-22.0972.8958-41.5069 4.4791-58.229 3.5834-16.7223 8.3611-34.0417 14.3333-51.9583 5.9723-17.9167 16.125-30.757 30.4583-38.5208 14.3333-7.7639 30.4583-12.5417 48.375-14.3333 2.3889 1.1944 7.4652 4.1805 15.2291 8.9583 18.8462 11.6074 23.5945 14.71 43.0263 21.2181 7.1667 2.3889 18.8227 8.2126 35.0449 8.1007 14.889.0282 34.3323-5.2696 47.651-10.5063 13.3188-5.2368 22.5722-10.2214 31.9443-18.8125 9.372-8.5912 12.8402-10.1528 15.2291-8.9583 19.111 0 35.236 4.7777 48.375 14.3333 13.1388 9.5555 23.2916 22.3958 30.4582 38.5208 7.1667 16.125 11.9444 33.4444 14.3333 51.9582 2.389 18.5139 3.882 37.9236 4.4792 58.2291zm-77.9373-259.7913c0 31.0555-11.0486 57.6319-33.1458 79.729-22.0972 22.0972-48.9721 33.4444-80.6249 34.0417-31.6527.5972-58.229-10.75-79.729-34.0416-21.5-23.2917-32.5486-49.868-33.1458-79.729-.5972-29.8612 10.4514-56.7361 33.1458-80.625 22.6944-23.8888 49.2707-34.9374 79.729-33.1458 30.4583 1.7917 57.3333 12.8403 80.625 33.1458 23.2916 20.3055 34.3402 47.1805 33.1457 80.625zM894.864 591.729v32.25c0 4.7778-1.493 8.6597-4.4791 11.6458-2.9861 2.9861-6.868 4.4792-11.6458 4.4792H591.177c-4.7778 0-8.6597-1.493-11.6458-4.4792-2.9861-2.986-4.4792-6.868-4.4792-11.6458v-32.25c0-4.7777 1.493-8.6597 4.4792-11.6458 2.986-2.986 6.868-4.4791 11.6458-4.4791h287.562c4.7778 0 8.6598 1.493 11.6459 4.4791 2.986 2.9861 4.4791 6.868 4.4791 11.6459zm0-125.4164v27.7708c0 4.7777-1.7916 8.9583-5.375 12.5416-3.5833 3.5833-7.7638 5.375-12.5416 5.375H592.9686c-4.7777 0-8.9583-1.7917-12.5416-5.375-3.5833-3.5833-5.375-7.7639-5.375-12.5416v-27.7708c0-5.375 1.7917-9.8542 5.375-13.4375 3.5833-3.5833 7.7639-5.0764 12.5416-4.4792h283.9788c4.7778 0 8.9583 1.493 12.5417 4.4792 3.5833 2.986 5.375 7.4653 5.375 13.4375zm0-129.8957v31.3541c0 4.7778-1.493 8.6597-4.4791 11.6459-2.9861 2.986-6.868 4.4791-11.6458 4.4791H591.177c-4.7778 0-8.6597-1.493-11.6458-4.4791-2.9861-2.9862-4.4792-6.868-4.4792-11.6459v-31.354c0-4.7779 1.493-8.6598 4.4792-11.6459 2.986-2.9861 6.868-4.4792 11.6458-4.4792h287.562c4.7778 0 8.6598 1.4931 11.6459 4.4792 2.986 2.9861 4.4791 6.868 4.4791 11.6458zm63.604 479.2702V208.3129c0-4.7777-1.493-8.6597-4.4791-11.6458-2.986-2.986-6.5694-4.4791-10.75-4.4791H78.761c-4.1805 0-7.7638 1.493-10.75 4.4791-2.986 2.9861-4.7777 6.868-5.375 11.6458v607.3742c0 4.1805 1.7917 8.0624 5.375 11.6458 3.5834 3.5833 7.1667 5.0764 10.75 4.4791H255.24v-47.479c0-4.7778 1.493-8.6598 4.4791-11.6459 2.9861-2.986 6.868-4.4791 11.6458-4.4791h31.3542c4.7777 0 8.6597 1.493 11.6458 4.4791 2.986 2.9861 4.4791 6.868 4.4791 11.6458v47.4791h384.312v-47.479c0-4.7778 1.493-8.6598 4.4791-11.6459 2.9862-2.986 6.868-4.4791 11.6459-4.4791h31.354c4.7778 0 8.6598 1.493 11.6459 4.4791 2.9861 2.9861 4.4792 6.868 4.4792 11.6458v47.4791H943.239c4.1805 0 7.7639-1.493 10.7499-4.4791 2.986-2.9861 4.4792-6.868 4.4792-11.6458zm64.5-607.3742v607.3742c0 22.0971-7.7639 40.9096-23.2916 56.4374-15.5277 15.5277-34.3402 23.5902-56.4374 24.1874H78.761c-21.5 0-40.3124-8.0624-56.4374-24.1874S-1.5652 837.187-.968 815.687V208.3129c0-22.0972 7.7639-40.9096 23.2916-56.4374 15.5278-15.5277 34.3404-23.5902 56.4374-24.1874h864.478c21.4999 0 40.3124 8.0624 56.4374 24.1874s23.8889 34.9375 23.2916 56.4374z" fill="currentColor"/></svg>