<svg xmlns="http://www.w3.org/2000/svg" width="1024" height="1024"><path d="M517.978 21.9421L1029.5 226.551v68.8403h-67.8842q0 13.3856-10.5173 23.903-10.5173 10.5172-25.8151 9.561H110.6727q-15.2978 0-25.815-9.561-10.5174-9.5612-11.4735-23.903H5.5V226.551zM142.2247 363.2754H278.949v410.1737h67.8842V363.2754H483.558v410.1737h67.8842V363.2754h136.7246v410.1737h68.8403V363.2754h136.7246v410.1737h31.5518q14.3417 0 25.8151 9.5612 11.4734 9.5611 10.5173 23.9029v34.4201H73.3842v-34.4201q0-13.3857 11.4734-23.903 11.4734-10.5172 25.8151-9.561h31.5519V363.2753zm850.943 512.4781q15.2979 0 25.8151 10.5173Q1029.5 896.788 1029.5 910.1737v67.8842H5.5v-67.8842q0-14.3418 10.5173-23.903 10.5172-9.561 26.7712-10.5172h950.3791z" fill="currentColor"/></svg>