<svg viewBox="0 0 1024 1024" xmlns="http://www.w3.org/2000/svg" fill-rule="evenodd" clip-rule="evenodd" stroke-linejoin="round" stroke-miterlimit="2"><path d="M808.23 280c54.786.001 102 47.016 102 102v271.535c0 56.578-45.421 102-102 102H102c-56.578 0-102-45.422-102-102V382c0-56.578 45.421-102 102-102h706.23zm42.434 374.93V382c0-23.508-18.926-42.434-42.434-42.434H102c-23.508 0-42.434 18.926-42.434 42.434v272.93c0 23.508 18.926 42.433 42.434 42.433h706.031c23.508 0 42.433-18.925 42.434-42.433h.199zM781.535 382c14.145 0 26.695 12.551 25.102 26.695v219.739c0 14.144-10.957 25.101-25.102 25.101H127.102c-14.145 0-25.102-10.957-25.102-25.101V407.102C102 392.957 112.957 382 127.102 382h654.433zm170.93 26.695c33.071.001 67.535 59.766 67.535 109.969 0 50.203-33.07 109.77-67.535 109.77V408.695z" fill-rule="nonzero"/></svg>