<svg xmlns="http://www.w3.org/2000/svg" width="1024" height="1024"><path d="M527.5 534q0 108 78 108h114q30-72 110-72 50 0 85 35t35 85q0 50-35 85t-85 35q-80 0-110-74h-114q-159 0-171-54l-6-126h-124q-30 72-110 72-50 0-85-35t-35-85q0-50 35-85t85-35q80 0 110 74h124q2-61 16-120 13-54 161-54h114q30-74 110-74 50 0 85 35t35 85q0 50-35 85t-85 35q-80 0-110-72h-114q-78 0-78 98v54zm-333-94q-28 0-49 20t-21 49q0 29 21 49t49 20q28 0 49-20t21-49q0-29-21-49t-49-20zm635-174q28 0 49 20t21 49q0 29-21 49t-49 20q-28 0-49-20t-21-49q0-29 21-49t49-20zm0 492q28 0 49-20t21-49q0-29-21-49t-49-20q-28 0-49 20t-21 49q0 29 21 49t49 20z" fill="currentColor"/></svg>