<svg xmlns="http://www.w3.org/2000/svg" width="1024" height="1024"><path d="M22.5 774q11-15 32-26t49-20q28-9 40-15 19 0 34 4t33 15q18 11 25 13 47 21 260 119 19 4 36 0t39-18q22-14 24-14l77-35q57-26 87-39l42-21q38-19 60-24 13-2 28 1t23 7q8 4 23 13l18 11q3 2 16 6t18 8q5 4 11 11 3 4 4 14-10 13-31 24t-51 22q-30 11-40 16-43 20-128 62t-129 61q-7 3-21 12t-23 13l-26 11q-17 7-27 7t-30-2l-264-123q-6-3-32-14l-51-22-54-24q-29-13-46-24T27 787.5q-4.5-4.5-4.5-13.5zm0-268q11-15 32-25t50-20q29-10 41-15 19 0 34 4t35 15l25 14 127 58q85 39 127 59 19 5 37 0t39-17l25-14q68-32 160-72 11-5 32-17t38-19q17-7 36-11 16-3 32 1t37 17q21 13 23 13 5 3 16 6t18 8q7 5 10.5 10.5t4.5 14.5q-10 14-31 25t-53 23q-32 12-41 16l-258 124q-7 3-26 14t-29 15q-10 4-32 10t-36 0q-214-101-260-122-6-3-44-19t-69-30q-31-14-62-30t-34-22q-4-4-4-14zm0-267q10-15 32-27t52-22q30-10 41-16l348-162q30 0 54 7t56 26q32 19 40 22l117 54q78 36 117 55 4 2 37 15t54 24q21 11 27 20 3 4 4 13-9 13-26 22t-43 19q-26 10-35 14l-140 66q-93 44-139 67l-20 11q-14 8-23 12l-25 11q-16 7-27 6t-28-1l-256-119-63-28q-59-26-102-46t-48-30q-4-4-4-13z" fill="currentColor"/></svg>