<svg xmlns="http://www.w3.org/2000/svg" width="1024" height="1024"><path d="M811.1375 612q-11 0-29 3-14 2-21 2l-144-145 119-119 155-55 114-184q4-8 4-17t-4-13l-60-60q-7-7-17-8t-18 3l-189 110-60 159-119 119-134-144q0-7 2-21 2-18 2-29 0-63-37-114-35-49-92.5-72t-118.5-8l74 75q30 30 30 69.5t-30 69.5q-30 30-69.5 30t-69.5-30l-80-70q-15 53 0 105 14 49 51 86t86 50q53 14 107-2l145 145-60 60q-26-7-51-.5t-44 24.5l-204 205q-30 30-33 69.5t23 69.5q20 22 46 30t52.5 1.5q26.5-6.5 45.5-26.5l210-209q18-19 25-45.5t-1-49.5l60-59 145 144q-5 15-5 50 0 63 37 114 35 50 92 72 59 23 120 8l-75-75q-30-30-30-69.5t30-69.5q30-30 70-30t69 30l75 75q17-63-6-124-22-57-73.5-93.5t-114.5-36.5z" fill="currentColor"/></svg>