<svg xmlns="http://www.w3.org/2000/svg" width="1024" height="1024"><path d="M333 744v36q0 7-5 12t-13 6h-35q-7 0-13-6t-5-12v-36q0-7 5-12t13-6h35q8 0 13 6t5 12zm0-143v36q0 7-5 13t-13 5h-35q-7 0-13-5t-5-13v-36q0-7 5-12t13-6h35q8 0 13 6t5 12zm143 0v36q0 7-5 13t-13 5h-35q-8 0-13-5t-5-13v-36q0-7 5-12t13-6h35q8 0 13 6t5 12zM333 458v36q0 7-5 13t-13 5h-35q-7 0-13-5t-5-13v-36q0-7 5-12t13-5h35q8 0 13 5t5 12zm429 286v36q0 7-5 12t-13 6h-36q-7 0-12-6t-6-12v-36q0-7 6-12t12-6h36q7 0 13 6t5 12zM619 601v36q0 7-5 13t-13 5h-36q-7 0-12-5t-5-13v-36q0-7 5-12t12-6h36q7 0 13 6t5 12zM476 458v36q0 7-5 13t-13 5h-35q-8 0-13-5t-5-13v-36q0-7 5-12t13-5h35q8 0 13 5t5 12zM333 316v35q0 7-5 13t-13 5h-35q-7 0-13-5t-5-13v-35q0-8 5-13t13-5h35q8 0 13 5t5 13zm429 285v36q0 7-5 13t-13 5h-36q-7 0-12-5t-6-13v-36q0-7 6-12t12-6h36q7 0 13 6t5 12zM619 458v36q0 7-5 13t-13 5h-36q-7 0-12-5t-5-13v-36q0-7 5-12t12-5h36q7 0 13 5t5 12zM476 316v35q0 7-5 13t-13 5h-35q-8 0-13-5t-5-13v-35q0-8 5-13t13-5h35q8 0 13 5t5 13zM333 173v35q0 8-5 13t-13 5h-35q-7 0-13-5t-5-13v-35q0-8 5-13t13-5h35q8 0 13 5t5 13zm429 285v36q0 7-5 13t-13 5h-36q-7 0-12-5t-6-13v-36q0-7 6-12t12-5h36q7 0 13 5t5 12zM619 316v35q0 7-5 13t-13 5h-36q-7 0-12-5t-5-13v-35q0-8 5-13t12-5h36q7 0 13 5t5 13zM476 173v35q0 8-5 13t-13 5h-35q-8 0-13-5t-5-13v-35q0-8 5-13t13-5h35q8 0 13 5t5 13zm286 143v35q0 7-5 13t-13 5h-36q-7 0-12-5t-6-13v-35q0-8 6-13t12-5h36q7 0 13 5t5 13zM619 173v35q0 8-5 13t-13 5h-36q-7 0-12-5t-5-13v-35q0-8 5-13t12-5h36q7 0 13 5t5 13zm143 0v35q0 8-5 13t-13 5h-36q-7 0-12-5t-6-13v-35q0-8 6-13t12-5h36q7 0 13 5t5 13zM619 941h214V83H190v858h215V816q0-8 5-13t13-5h178q7 0 13 5t5 13v125zM905 48v928q0 15-11 25t-25 11H155q-15 0-25-11t-11-25V48q0-15 11-25t25-11h714q15 0 25 11t11 25z" fill="currentColor"/></svg>