<svg xmlns="http://www.w3.org/2000/svg" width="1024" height="1024"><path d="M261.5 869q0-29-21-50t-50-21q-29 0-51 21t-21 50q1 29 21 51t51 21q31-1 50-21t21-51zm215 0q0-29-21-50t-51-21q-30 0-50 21t-21 50q-1 29 21 51t50 21q28-1 51-21t21-51zm-215-214q0-30-21-51t-50-21q-29 0-51 21t-21 51q1 30 21 50t51 21q31 1 50-21t21-50zm429 214q0-29-21-50t-51-21q-30 0-50 21t-21 50q-1 29 21 51t50 21q28-1 51-21t21-51zm-214-214q0-30-21-51t-51-21q-30 0-50 21t-21 51q-1 30 21 50t50 21q28 1 51-21t21-50zm-215-214q0-30-21-51t-50-21q-29 0-51 21t-21 51q1 30 21 50t51 21q31 1 50-21t21-50zm429 214q0-30-21-51t-51-21q-30 0-50 21t-21 51q-1 30 21 50t50 21q28 1 51-21t21-50zm-214-214q0-30-21-51t-51-21q-30 0-50 21t-21 51q-1 30 21 50t50 21q28 1 51-21t21-50zm428 428V655q0-29-21-50t-50-22q-29-1-50 22t-22 50v214q0 29 22 50t50 22q28 1 50-22t21-50zm-214-428q0-30-21-51t-51-21q-30 0-50 21t-21 51q-1 30 21 50t50 21q28 1 51-21t21-50zm214-179V119q0-14-10-25t-26-11h-714q-14 0-25 11t-11 25v143q0 14 11 25t25 11h714q15 0 26-11t10-25zm0 179q0-30-21-51t-50-21q-29 0-51 21t-21 51q1 30 21 50t51 21q31 1 50-21t21-50zm72-358v858q0 29-22 50t-50 21h-786q-29 0-50-21t-21-50V83q0-29 21-50t50-21h786q29 0 50 21t22 50z" fill="currentColor"/></svg>