<svg xmlns="http://www.w3.org/2000/svg" width="1024" height="1024"><path d="M137 25q-35 7-63 30t-42 57l-1 3q-5 12-6 29-2 23-3 98v525q1 59 3 78 1 14 7 26l1 3q13 30 38.5 52.5T129 958q11 3 40 3.5t189 1.5l215 1 20 10q31 15 74 25 18 3 50.5 3t50.5-4q79-15 138-67t83-127q8-25 10.5-42t2.5-45q0-37-6.5-65.5T974 593l-10-20-1-216q-1-160-1.5-189t-3.5-39q-11-40-41-68t-69-36q-10-2-69-3H491q-339 0-354 3zm713 42q18 6 32.5 18t23.5 27q4 5 10 22l5 14v366l-17-14q-50-42-109.5-59t-121-7.5Q612 443 557 479q-16 11-41 36t-36 41q-32 50-43.5 105t-.5 110q14 74 64 133l15 17H148l-14-5q-24-8-41.5-25.5T67 849l-4-14V492q0-249 1-296 0-50 3-58 7-26 26-45t44-26l16-4h684zm-95 408q34 5 68 21.5t60 40.5q49 46 68.5 109t3.5 128q-12 52-46 95t-82 67q-45 23-97 25.5T630 946q-24-9-49-26-52-35-80.5-88.5T472 716q0-55 23.5-104t65-83.5Q602 494 655 480q50-13 100-5zM274 151l-7 6v110H158l-7 7q-10 10-4 24 3 5 7.5 6.5T172 307h95v54q0 53 3 58 4 8 14 10t17-4l6-4 2-113 112-2 5-5q6-7 4-17.5T420 270q-8-3-59-3h-53v-54q0-30-.5-42t-2.5-16.5q-2-4.5-7-7.5-14-6-24 4zm332 118q-11 5-11 19 0 8 6 14l5 5h110q82 0 97-.5t18-2.5q6-4 7.5-11t-.5-13v-1q-3-7-9.5-9t-30.5-3h-82q-106 0-110 2zM154 597q-9 7-9 19 0 5 7.5 13.5T192 670l47 46-45 45q-43 43-47 49-4 10 1 20 4 5 10.5 7.5t12.5.5q6-2 51-47l45-46 47 46q44 46 51 48 12 2 20-8t3-20q-2-6-47-49l-45-46 46-46q28-28 35-36 11-12 12.5-17t-2.5-12q-6-10-20-10-5 0-13 7t-40 39l-47 47-46-47q-33-33-41-39.5t-14-6.5q-6 0-12 2zm452 40q-11 5-11 19 0 8 6 14l5 5h110q81 0 96.5-.5T831 671q9-7 8.5-17t-9.5-15q-4-3-19.5-3.5T717 635q-107 0-111 2zm0 123q-11 5-11 18 0 5 1 8t5 6l5 6h187q23 0 29.5-1t8.5-3q12-9 7-24v-1q-3-6-8-8t-25-3h-89q-108 0-110 2z" fill="currentColor"/></svg>