<svg xmlns="http://www.w3.org/2000/svg" width="1024" height="1024"><path d="M856 137h-63v94q0 13-9 22t-22 9H637q-13 0-22-9t-9-22v-94H418v94q0 13-9 22t-22 9H262q-13 0-22-9t-9-22v-94h-63q-25 0-43.5 18T106 199v688q0 26 18.5 44.5T168 950h688q25 0 43.5-18.5T918 887V199q0-26-18-44t-44-18zm0 750H168V324h688v563zM356 199h-63V74h63v125zm375 0h-63V74h63v125zM418 449h-62v-62h62v62zm125 0h-62v-62h62v62zm125 0h-62v-62h62v62zm125 0h-62v-62h62v62zM293 574h-62v-62h62v62zm125 0h-62v-62h62v62zm125 0h-62v-62h62v62zm125 0h-62v-62h62v62zm125 0h-62v-62h62v62zM293 699h-62v-62h62v62zm125 0h-62v-62h62v62zm125 0h-62v-62h62v62zm125 0h-62v-62h62v62zm125 0h-62v-62h62v62zM293 824h-62v-62h62v62zm125 0h-62v-62h62v62zm125 0h-62v-62h62v62zm125 0h-62v-62h62v62z" fill="currentColor"/></svg>