<svg xmlns="http://www.w3.org/2000/svg" width="1024" height="1024"><path d="M724.3094 638q0-14-10-25l-101-101 101-101q10-11 10-25.5t-10-25.5l-51-50q-10-11-25-11t-25 11l-101 101-101-101q-11-11-26-11t-25 11l-50 50q-11 11-11 25.5t11 25.5l101 101-101 101q-11 11-11 25.5t11 25.5l50 50q10 11 25 11t26-11l101-101 101 101q10 11 25 11t25-11l51-50q10-11 10-26zm216-126q0 117-57 215t-156 156q-99 58-215 58t-216-58q-100-58-155-156t-58-215q-3-117 58-215t155-156q94-58 216-58t215 58q93 58 156 156t57 215z" fill="currentColor"/></svg>