<svg xmlns="http://www.w3.org/2000/svg" width="1024" height="1024"><path d="M1024 831.832v64.504H0V127.664h63.608v704.168H1024zm-64.5039-623.538v216.8049q0 10.7506-8.9589 15.23-8.9589 4.4795-17.9178-3.5835L871.699 375.825 555.4506 692.0735q-5.3754 5.3753-11.6466 5.3753-6.2712 0-11.6465-5.3753L415.692 575.608 207.846 784.35l-95.86-96.756 292.9554-292.0594q4.4794-5.3754 10.7506-5.3754t11.6466 5.3754L543.804 512l232.035-232.035-60.0245-60.9204q-8.063-7.167-4.4794-17.0218 3.5835-9.8548 15.23-9.8548H944.266q6.2712 0 10.7506 4.4794 4.4795 4.4795 4.4795 11.6466z" fill="currentColor"/></svg>