<svg xmlns="http://www.w3.org/2000/svg" width="1024" height="1024"><path d="M955 0l69 63-301 330-198-192 65-67 129 125zM630.6827 846.5636q174.8088 56.0325 174.8088 94.944V1024H0v-82.4924q0-38.9115 174.8088-94.944 80.5491-26.4598 109.684-53.6979 29.1348-27.238 29.1348-73.9318 0-17.121-18.852-38.1333-18.852-21.0122-27.421-56.8107-1.7138-9.3388-7.7121-14.0082-5.9984-4.6693-11.9967-6.2258-5.9983-1.5565-11.9967-13.23-5.9983-11.6733-7.7121-33.4638 0-12.4517 4.2845-20.234 4.2845-7.7823 7.7121-9.3387l3.4277-3.113q-6.8553-38.9114-10.2829-68.4842-3.4276-42.0244 35.1331-87.1617 38.5608-45.1373 134.5343-45.1373 95.9734 0 135.391 45.1373 39.4178 45.1373 34.2763 87.1617l-10.2828 68.4843q15.4243 6.2258 15.4243 32.6856-1.7139 21.7904-7.7122 33.4639-5.9983 11.6734-11.9967 13.2299-5.9983 1.5565-11.9967 6.2258-5.9983 4.6694-7.7121 14.0082-6.8553 37.355-26.564 57.589-19.709 20.234-19.709 37.355 0 46.6938 29.9918 73.9318 29.9917 27.238 108.827 53.6979z" fill="currentColor"/></svg>