<svg xmlns="http://www.w3.org/2000/svg" width="1024" height="1024"><path d="M1002 858L803 659l142-82q8-5 13-13.5t4-18q-1-9.5-6.5-17.5T941 517L308 264q-10-4-19.5-1.5T272 272q-7 7-9.5 16.5T264 308l253 633q4 9 11.5 14.5t17 6.5q9.5 1 18-4t13.5-13l82-142 199 199q9 10 23.5 10t23.5-10l97-97q10-10 10-23.5t-10-23.5zM159 111q-10-10-23.5-10T112 111q-10 10-10 24t10 24l74 74q9 10 23.5 10t24-10q9.5-10 9.5-23.5T233 186zm25 232q0-14-9.5-24T151 309H46q-14 0-24 10t-10 24q0 14 10 23.5t24 9.5h105q14 0 23.5-10t9.5-23zm-13 103l-75 74q-10 10-10 23.5T96 567q10 10 24 10t23-10l75-74q10-10 10-23.5T218 446q-10-10-23.5-10T171 446zm172-262q14 0 23.5-10t9.5-24V45q0-14-9.5-23.5T343 12q-14 0-24 9.5T309 45v105q0 14 10 24t24 10zm127 43q14 0 23-9l75-75q10-10 10-23.5T568 96q-10-10-24-10t-24 10l-74 74q-10 10-10 24t9.5 23.5Q455 227 470 227z" fill="currentColor"/></svg>