<svg xmlns="http://www.w3.org/2000/svg" width="1024" height="1024"><path d="M935.3636 324q15 15 20 34t-1 38q-6 19-22 34l-29 29 2-5q4-9 4-17-1-13-7-25-7-16-23-31-14-14-29-21-13-5-26-7-9 0-18 2l-6 2 31-31q14-14 33-19t38-.5q19 4.5 33 17.5zm-91 71l10 10q15 15 23 31 5 13 6 25 0 9-3 17l-2 6-315 316-134 33-3-3 35-134 317-315q19-4 37 0zm-440-227v-39q0-16 12-28t27-11q15 1 28 11t11 28v39h78v76h-234v-76h78zm336 501v226q0 16-11.5 27.5t-27.5 11.5h-518q-16 0-27-11t-12-28V207q0-16 12-28t27-11h65v154h390V168h63q16 0 28 11t11 28v163l78-85v-78q0-31-16-58t-43-43q-27-16-58-16h-148q-12-34-42-56t-68-22q-38 0-68 22t-43 56h-149q-31 0-58 16t-43 43q-16 27-16 58v688q0 31 16 58t43 43q27 16 58 16h518q31 0 58-16t43-43q16-27 16-58V589z" fill="currentColor"/></svg>