<svg xmlns="http://www.w3.org/2000/svg" width="1024" height="1024"><path d="M426.5 168v-39q0-16 12-28t27-11q15 1 28 11t11 28v39h78v76h-234v-76h78zm336 501v226q0 16-11.5 27.5T723.5 934h-518q-16 0-27-11t-12-28V207q0-16 12-28t27-11h65v154h390V168h63q16 0 28 11t11 28v163l78-85v-78q0-31-16-58t-43-43q-27-16-58-16h-148q-12-34-42-56t-68-22q-38 0-68 22t-43 56h-149q-31 0-58 16t-43 43q-16 27-16 58v688q0 31 16 58t43 43q27 16 58 16h518q31 0 58-16t43-43q16-27 16-58V589zm115-327l58 53-251 275-165-160 54-56 108 104zm0 0z" fill="currentColor"/></svg>