<svg xmlns="http://www.w3.org/2000/svg" width="1024" height="1024"><path d="M511.5 105.5q110 0 205 56 92 53 146 145 56 95 56 205.5t-56 204.5q-54 92-146 146-95 56-205.5 56t-204.5-56q-92-54-146-146-55-94-55-204.5t55-205.5q54-92 146-145 94-56 205-56zm0 723q86 0 160-44 72-42 114-114 43-74 43-160t-43-160q-42-71-114-113-74-43-160-43t-160 43q-72 42-114 113-43 74-43 160t43 160q42 72 114 114 74 44 160 44zm120-268h-127q-21 0-33-15l-143-156q-14-15-12-32t15-29q13-12 30.5-13t31.5 13l130 142h108q22 0 33.5 13.5t10.5 31.5q-1 18-12.5 31.5t-31.5 13.5zm-145-287q0-10 7.5-17t16.5-7q9 0 16.5 7t7.5 17q0 10-7 17t-17 7q-10 0-17-7.5t-7-16.5zm167 65q0-10 7-17t16-7q9 0 16.5 7t7.5 17q0 10-7 17t-16.5 7q-9.5 0-16.5-7.5t-7-16.5zm73 171q0-9 7.5-16.5t16.5-7.5q9 0 16.5 7.5t7.5 16.5q0 9-7 16.5t-17 7.5q-10 0-17-7t-7-17zm-66 168q0-10 7-17t17-7q10 0 17 7t7 16.5q0 9.5-7.5 16.5t-16.5 7q-9 0-16.5-7t-7.5-16zm-175 72q0-9 7-16.5t17-7.5q10 0 17 7.5t7 16.5q0 9-7.5 16.5t-16.5 7.5q-9 0-16.5-7t-7.5-17zm-162-65q0-9 7-16.5t16-7.5q9 0 16.5 7.5t7.5 16.5q0 9-7 16.5t-17 7.5q-10 0-16.5-7t-6.5-17zm-75-175q0-9 7-16.5t16-7.5q9 0 16.5 7.5t7.5 16.5q0 9-7 16.5t-17 7.5q-10 0-16.5-7t-6.5-17z" fill="currentColor"/></svg>