<svg xmlns="http://www.w3.org/2000/svg" width="1024" height="1024"><path d="M512 297.4528q91.1825 0 152.8649 63.0232 61.6823 63.0233 61.6823 152.8649t-61.6823 151.524q-61.6824 61.6823-151.524 61.6823T360.476 664.8649q-63.0232-61.6824-63.0232-151.524T360.476 360.476Q423.4993 297.4528 512 297.4528zm0 354.0029q59.0005 0 97.8871-40.2276 38.8867-40.2276 38.8867-97.8872 0-57.6596-38.8867-97.8872-38.8866-40.2276-96.5462-40.2276t-97.8872 40.2276q-40.2276 40.2276-40.2276 97.8872 0 57.6596 40.2276 97.8872Q455.6813 651.4557 512 651.4557zM109.724 458.3632q26.8184 0 46.9322 16.091T176.77 512q0 53.6368-67.046 53.6368T42.678 512q0-21.4547 20.1137-37.5458 20.1138-16.091 46.9322-16.091zm732.1423-273.5477q37.5458 37.5457-10.7273 85.8189-18.773 18.7728-44.2504 21.4547-25.4775 2.6818-40.2276-13.4092-14.7501-16.091-12.0683-41.5685 2.6819-25.4775 21.4547-44.2504 48.2732-45.5913 85.819-8.0455zm72.4098 273.5477q26.8184 0 46.9322 16.091T981.322 512q0 53.6368-65.7051 53.6368T849.9118 512q0-21.4547 18.7728-37.5458 18.773-16.091 45.5913-16.091zM512 847.23q21.4547 0 37.5457 20.1138 16.091 20.1138 16.091 46.9322t-16.091 46.9322Q533.4547 981.322 512 981.322q-21.4547 0-37.5458-20.1138-16.091-20.1138-16.091-46.9322t16.091-46.9322Q490.5452 847.23 512 847.23zm-319.139-83.137q48.2731-48.2732 85.8189-10.7274t-10.7274 85.8189q-18.7729 18.7729-44.2503 21.4547-25.4775 2.6818-38.8867-10.7274-40.2276-37.5457 8.0455-85.8188zm-13.4092-576.5957q37.5458-37.5457 85.8189 10.7274 18.7729 18.7729 21.4547 44.2503 2.6819 25.4775-10.7273 38.8867-40.2277 37.5458-85.819-8.0455-48.273-48.2731-10.7273-85.8189zm579.2775 649.0053q-45.5913-48.273-8.0455-85.8188 37.5457-37.5458 85.8188 10.7273 18.773 18.7729 21.4548 44.2504 2.6818 25.4775-13.4092 38.8867-40.2276 37.5457-85.819-8.0456zM512 176.77q-21.4547 0-37.5458-20.1138-16.091-20.1138-16.091-46.9323 0-26.8184 16.091-46.9322T512 42.678q21.4547 0 37.5457 20.1138 16.091 20.1138 16.091 46.9322 0 26.8185-16.091 46.9323Q533.4547 176.77 512 176.77z" fill="currentColor"/></svg>