<svg xmlns="http://www.w3.org/2000/svg" width="1024" height="1024"><path d="M208.5 762q0-15-11-25T172 726.5q-14.5-.5-24.5 10.5T137 762.5q-.5 14.5 10.5 24.5t25.5 10.5q14.5.5 24.5-10.5t11-25zm89-286v357q0 15-10 25t-26 11h-160q-15 0-25-11t-11-25V476q0-14 11-25t25-10h160q15 0 26 10t10 25zm661 0q0 48-31 83 9 25 9 43 1 42-24 76 9 31 0 66-9 31-31 52 5 62-27 101-36 43-110 44h-72q-37 0-80-9t-68-16q-25-7-67-22-69-24-88-25-15 0-25-11t-11-25V476q0-14 10-25t23.5-11.5q13.5-.5 42.5-32.5t57-67q38-49 56-67 10-10 17-27t10-27q3-10 8-34 4-22 7-34t11-29q8-17 18.5-28t25.5-11q25 0 46 6t33 15q12 9 22 22t14 25q4 12 7 28t2 25q-1 9 1 22 0 21-6 43t-10 33q-4 11-16 31-1 4-5 10t-6 13q-2 7-5 13h155q43 0 75 32t32 75z" fill="currentColor"/></svg>