<svg xmlns="http://www.w3.org/2000/svg" width="1024" height="1024"><path d="M543.5 293h-63v-62h63v62zm250 188h-63v62h63v-62zm-438-188h-62v63h62v-63zm-62 188h-63v62h63v-62zm687-344l-31-31-406 312q-2-1-33 0h-30q-25 0-43.5 18.5T418.5 481v62q0 26 18 44.5t44 18.5h63q26 0 44-18.5t18-44.5v-57zm-99 256q18 57 18 119 0 105-53 196-51 88-139 139-90 53-195 53t-196-53q-87-52-139-139-53-91-53-196t53-195q51-88 139-139 90-53 195-53 111 0 205 58l58-58q-58-40-125-61t-137-21q-127 0-237 64-106 62-168 168-64 110-64 237t64 237q62 106 168 168 109 64 236 64t237-64q106-62 168-168 64-110 64-237 0-99-37-182z" fill="currentColor"/></svg>