<svg xmlns="http://www.w3.org/2000/svg" width="1024" height="1024"><path d="M43.2596 511.5128q0-95 37-182t100-149q63-62 149-100t183-37q95 0 182 37t149 100q62 63 100 149t37.5 181.5q-.5 95.5-37.5 182.5t-100 150q-63 63-149 100t-182 37q-96 0-183-37t-149-100q-62-63-100-150t-37-182zm88 0q0 49 14 99 35-95 103-164-1-2-2-6l-1-5h-6q-49 0-102 14-6 32-6 62zm20-122q47-9 88-9h11q10-20 29-32t43-12q28 0 50 18 90-46 194-48 5-11 11-19-73-96-188-136-84 29-147 91t-91 147zm27 304q42 77 115 129t161 65q85-49 137-128-19-23-19-52 0-34 25-58-35-64-89-112t-121-74q-25 33-65 33-19 0-37-10-85 89-107 207zm223-291q1 1 1 4v5q80 30 143 86t103 130h1q11-48 11-93 0-55-18-117h-2q-26 0-47-16t-29-40q-87 3-163 41zm79-270q83 47 142 126 9-2 18-2 31 0 54 21t25 51q91 30 162 91-32-125-134-207t-235-82h-10q-5 0-12 1zm66 758q48-4 99-23l1-11q1-8 1-14 0-22-4-56h-4q-38 58-93 104zm148-493q21 70 21 137 0 55-14 110 32 24 32 64t-37 66q6 34 6 66 87-50 139-138t52-191v-1q-76-92-186-129-7 10-13 16z" fill="currentColor"/></svg>