<svg xmlns="http://www.w3.org/2000/svg" width="1024" height="1024"><path d="M43.5128 511.5128q0-95 37-182t100-149q63-62 149-100t183-37q84 0 161 28t140 82q41 31 71 75 96 126 96 283 0 95-37 182t-100 150q-63 63-149 100t-182 37q-96 0-183-37t-149-100q-62-63-100-150t-37-182zm94-62q50-14 102-14h6l1 5q1 4 2 6-70 71-103 164 11 43 33 84 22-119 107-208 17 10 37 10 40 0 65-33 67 26 121 74t89 112q-25 24-25 58 0 29 19 52-54 80-137 128 29 4 58 4 17 0 34-1 56-46 93-104h3q5 31 5 56l-2 25q31-12 57-27 0-32-6-66 37-26 37-66t-32-64q14-55 14-110 0-67-21-137 7-7 12-16 111 37 186 128 0-45-11-90-72-62-162-91-3-30-25-51t-54-21q-9 0-18 2-59-79-143-126-44 4-89 19 114 41 187 136-6 8-11 19-104 2-194 48-22-18-50-18-24 0-43 12t-29 32h-11q-41 0-88 9-9 28-14 60zm264-47q80-39 163-41 8 24 29 40t47 16h2q18 60 18 117 0 48-12 93-39-74-103-130t-143-86v-5q0-3-1-4z" fill="currentColor"/></svg>