<svg xmlns="http://www.w3.org/2000/svg" width="1024" height="1024"><path d="M952.6525 596.9018v-441.11q0-6.6403-4.743-11.3834-4.7432-4.7431-12.3322-5.6917H88.4566q-6.6404 0-11.3835 5.6917t-5.6918 11.3835v441.1099q0 6.6404 5.6918 11.3835 5.6917 4.743 11.3835 4.743h847.1207q6.6404 0 12.3321-4.743 5.6917-4.7431 4.7431-11.3835zm67.3523-441.11v575.8145q0 35.099-24.6642 59.7633-24.6642 24.6642-59.7633 25.6128H648.1444q0 18.9725 8.5376 40.7908 8.5376 21.8184 16.1266 37.945t8.5376 22.767q0 13.2807-9.4862 23.7155-9.4863 10.4349-23.7156 10.4349H376.8381q-14.2294 0-23.7156-10.4349-9.4862-10.4348-10.4349-23.7155 0-7.589 8.5377-23.7156 8.5376-16.1266 17.0752-36.9964 8.5376-20.8697 8.5376-40.7908H88.4566q-34.1505 0-59.7633-25.6128Q3.0804 765.7568 4.029 731.6063V155.792q0-35.099 24.6642-59.7633 24.6642-24.6642 59.7633-24.6642h847.1207q35.099 0 59.7633 24.6642 24.6642 24.6642 24.6642 59.7633z" fill="currentColor"/></svg>