<svg xmlns="http://www.w3.org/2000/svg" width="1024" height="1024"><path d="M134.287 427.3864l289.8792 294.7572-139.1087-294.7572H134.287zm377.3428 341.6324L674.062 427.3863H350.0305zm-225.7393-398.836l94.9605-170.0216H259.235L125.1242 370.1829h160.7663zm314.0358 351.9608l289.8793-294.7572H739.035zM353.3624 370.183h317.3678l-94.9605-170.0217H448.3228zm384.8397 0h160.7663L764.8576 200.1612h-121.616zm64.9729-215.308l179.092 227.2253q5.831 7.9449 5.831 18.2733 0 10.3284-8.3299 17.4789L534.1204 872.3029q-8.3298 8.7395-22.4906 8.7395t-21.6577-8.7395L44.3245 417.8525q-7.4969-7.1505-8.3299-17.4789-.833-10.3284 5.831-18.2733l179.092-227.2253q8.3298-11.9174 23.3236-11.9174h535.6102q14.9937 0 23.3236 11.9174z" fill="currentColor"/></svg>