<svg viewBox="0 0 1024 1024" xmlns="http://www.w3.org/2000/svg" fill-rule="evenodd" clip-rule="evenodd" stroke-linejoin="round" stroke-miterlimit="2"><path d="M777.475 74c17.334-.666 32 5.334 44 18 12 12.667 18 27.667 18 45v83.05h61c17.334-.666 32 5.334 44 18 12 12.667 18 27.667 18 45v610c.667 18-5.333 33-18 45s-27.333 18-44 18h-610c-16.667.667-31.333-5.333-44-18-12.667-12.667-19-27.667-19-45V830h-90c-16.667.667-31.333-5.333-44-18-12.667-12.667-19-27.667-19-45V137c.667-18 7-33 19-45s26.666-18 44-18h640zM760 300H310v580h570V300H760zm0-79.95V150H150v610h77.475V283.05c.667-18 7-33 19-45s26.666-18 44-18H760z" fill-rule="nonzero"/></svg>