<svg xmlns="http://www.w3.org/2000/svg" width="1024" height="1024"><path d="M510 709l64-65-85-85-64 65v31h53v54h32zm245-402q-9-9-18 0L541 503q-9 9 0 18t18 0l196-196q9-9 0-18zm45 331v106q0 67-47 114t-114 47H175q-67 0-114-47T14 744V280q0-66 47-113t114-48h464q35 0 65 14 9 4 10.5 13.5T709 162l-27 28q-8 8-18 4-13-3-25-3H175q-37 0-63 26t-27 63v464q0 37 27 63t63 27h464q37 0 63-27t26-63v-70q0-7 5-12l36-36q8-8 20-4t11 16zm-54-411l161 160-375 375H371V602zm248 73l-51 52-161-161 51-52q16-15 38-15t38 15l85 85q16 16 16 38t-16 38z" fill="currentColor"/></svg>