<svg xmlns="http://www.w3.org/2000/svg" width="1024" height="1024"><path d="M36.9667 634.27l353.56 353.55q18.38 18.38 44.19 18.03 25.81-.35 44.2-18.74l530.33-530.33q18.38-18.38 18.03-44.2-.35-25.82-18.03-43.48l-353.56-353.55q-18.37-18.4-44.55-18.4-26.18 0-43.84 17.7l-530.33 530.32q-18.38 18.39-18.38 44.55 0 26.16 18.38 44.55zm574.88-574.88l-44.55 485.78-485.78 44.55zm-463.86 596.8l309-44.55-43.84 309.71zm330.92 243.24l21.92-287.8h132.94l-.7-132.22 287.79-21.92zm464.57-508.4l-309.7 43.82 44.54-309zm-929.76 435.82h66q7 0 12-7.5t5-14.5q0-7-5-14t-12-7h-66q-7 0-12 7t-5 14q0 7 5 14.5t12 7.5zm233 147h-233q-7 0-12 7t-5 19q0 12 5 19.5t12 7.5h233q7 0 12-7.5t5-19.5q0-12-5-19t-12-7zm-233-47h133q7 0 12-7t5-19q0-12-5-19.5t-12-7.5h-133q-7 0-12 7.5t-5 19.5q0 12 5 19t12 7z" fill="currentColor"/></svg>