<svg xmlns="http://www.w3.org/2000/svg" width="1024" height="1024"><path d="M322 721l43-79q-48-35-76-88t-27-114q0-67 34-125-128 65-213 197 94 144 239 209zm217-424q0-11-8-19t-19-7q-70 0-120 50t-50 119q0 11 8 19t19 8q11 0 19-8t8-19q0-48 34-82t82-34q11 0 19-8t8-19zm202-106v5q-59 105-176 316T389 828l-28 50q-5 9-15 9-7 0-75-39-9-6-9-16 0-7 25-49-80-36-147-96T23 550q-11-17-11-38t11-39q86-131 212-207t277-76q50 0 100 10l31-54q5-9 15-9 3 0 10 3t18 9l36 20q11 6 10 7 9 5 9 15zm21 249q0 78-44 142t-117 91l157-280q4 25 4 47zm250 72q0 19-11 38-22 36-61 81-84 96-194 149t-234 53l41-74q119-10 219-76t169-171q-65-100-158-164l35-63q53 36 102 85t81 103q11 19 11 39z" fill="currentColor"/></svg>