<svg xmlns="http://www.w3.org/2000/svg" width="1024" height="1024"><path d="M516 137q-57 0-112 16-51 15-100 43-44 24-86 60-37 30-72 68-30 33-58 69-22 30-42 60-14 22-25 43l-9 16 9 16q11 21 25 43 20 30 42 60 28 36 58 68 35 39 72 69 42 36 86 60 49 28 100 43 55 16 111.5 16T626 871q50-15 98-43 43-24 85-60 36-30 71-69 29-32 57-68 21-30 41-60 14-22 25-43l9-16-9-16q-11-21-25-43-20-30-41-60-28-36-57-69-35-38-71-68-42-36-85-60-48-28-98-43-54-16-110-16zm-4 625q-68 0-125-33.5T296 639q-34-59-34-127t34-125.5q34-57.5 91.5-91t125-33.5q67.5 0 125 33.5t91 91Q762 444 762 512t-33.5 125.5q-33.5 57.5-91 91T512 762zm125-250q0 34-17 62.5T574.5 620Q546 637 512 637t-62.5-17Q421 603 404 574.5T387 512q0-34 17-62.5t45.5-45.5q28.5-17 62.5-17t62.5 17q28.5 17 45.5 45.5t17 62.5z" fill="currentColor"/></svg>