<svg xmlns="http://www.w3.org/2000/svg" width="1024" height="1024"><path d="M902.5 224q16 16 27 42t11 50v642q0 23-15 38t-38 16h-750q-23 0-38-16t-16-38V66q0-23 16-38t38-16h500q22 0 49 11t42 27zm-248-136v210h210q-5-17-12-23l-175-175q-6-7-23-12zm215 853V369h-232q-23 0-38-16t-16-37V83h-429v858h715zm-189-142h-398q-10 0-17 6.5t-7 17q0 10.5 7 17.5t17 7h398q10 0 17.5-7t7.5-17q0-10-7-17t-18-7zm0 0zm-217-87q9 7 18 7t18-7l141-153q7-7 7-17t-7.5-17q-7.5-7-17.5-6.5t-17 7.5l-100 108V369q0-10-7-17t-17-7q-10 0-17 7t-7 17v265l-100-108q-7-7-17-7.5T323 525q-7.5 7-7.5 17t7 17zm0 0z" fill="currentColor"/></svg>