<svg xmlns="http://www.w3.org/2000/svg" width="1024" height="1024"><path d="M902.5 224q16 16 27 42t11 50v642q0 23-15 38t-38 16h-750q-23 0-38-16t-16-38V66q0-23 16-38t38-16h500q22 0 49 11t42 27zm-248-136v210h210q-5-17-12-23l-175-175q-6-7-23-12zm215 853V369h-232q-23 0-38-16t-16-37V83h-429v858h715zm-518-500q4-7 12-7t13 3l28 21q7 5 7 12t-3 13l-102 136 102 136q4 6 3 13t-7 12l-28 21q-6 4-13 4t-12-7l-126-168q-8-11 0-22zm447 167q8 11 0 22l-126 168q-4 6-11 7t-14-4l-28-21q-6-5-7-12t3-13l102-136-102-136q-4-6-3-13t7-12l28-21q6-4 14-3t11 7zm-346 258q-7-1-11-8t-3-13l77-464q1-7 7-11t14-3l35 5q7 2 11 8t3 13l-77 464q-1 7-7 11t-13 3z" fill="currentColor"/></svg>