<svg xmlns="http://www.w3.org/2000/svg" width="1024" height="1024"><path d="M453.409 31.5q35 96 24 164-10 59-57 106-24 25-84 72-50 39-74 61-41 38-69 77-36 51-49 119-15 74 3 142 21 78 82 132 69 62 185 88-51-27-81.5-76t-35-109.5q-4.5-60.5 18.5-118.5 25-62 79-109-18 61-5 109 12 45 47 64.5t79 5.5q42-14 76-2 31 11 49 40.5t17 65.5q-2 82-70 113 100-17 172-77 63-52 96-129 30-69 30-141 0-53-19-99-12-28-40-72-23-35-30-52-13-29-11-57 1-32 22-71-69 6-98 51-27 42-20 121 3 32-15 57t-47 32.5q-29 7.5-54-6.5-31-19-31.5-51t27.5-60q31-31 47-75 16-48 9-99-9-57-48-109-44-59-125-106l-2-1h2z" fill="currentColor"/></svg>