<svg xmlns="http://www.w3.org/2000/svg" width="1024" height="1024"><path d="M432 212q0 76-72 110v378q72 34 72 112 0 50-35 85t-85 35q-50 0-85-35t-35-85q0-78 72-112V322q-72-34-72-110 0-50 35-85t85-35q50 0 85 35t35 85zm-50 600q0-30-21-50t-49-20q-28 0-48 20t-20 49q0 29 20 49t48 20q28 0 49-20t21-48zm-70-532q28 0 49-20t21-49q0-29-21-49t-49-20q-28 0-48 20t-20 49q0 29 20 49t48 20zm448 420q72 34 72 112 0 50-35 85t-85 35q-50 0-85-35t-35-85q0-78 72-112V322q-72-34-72-110 0-50 35-85t85-35q50 0 85 35t35 85q0 76-72 110v378zM644 212q0 28 20 48t48 20q28 0 49-20t21-49q0-29-21-49t-49-20q-28 0-48 20t-20 50zm68 668q28 0 49-20t21-49q0-29-21-49t-49-20q-28 0-48 20t-20 49q0 29 20 49t48 20z" fill="currentColor"/></svg>