<svg xmlns="http://www.w3.org/2000/svg" width="1024" height="1024"><path d="M27.4965 511.4898q0-201 142-342t342-142q200-1 343 142t142 342q-1 199-142 343t-343 142q-202-2-342-142t-142-343zm63 16q7 166 125 283 52-37 109-60-43-106-47-223h-187zm0-31h187q4-104 37-196-62-25-117-68-102 113-107 264zm128-287q51 39 108 62 43-101 117-176-131 22-225 114zm20 623q88 76 205 95-64-64-105-148-53 19-100 53zm70-305q4 111 45 213 69-22 143-26v-187h-188zm0-31h188v-157q-78-3-153-29-31 88-35 186zm47-215q69 23 141 27v-218h-2q-90 76-139 191zm12 486q49 100 127 166h2v-187q-69 4-129 21zm160 166h2q78-66 127-166-61-17-129-21v187zm0-219q74 4 143 26 41-102 45-213h-188v187zm0-218h188q-4-98-36-186-74 26-152 29v157zm0-188q72-4 141-27-49-115-139-191h-2v218zm53 619q117-19 205-95-47-34-100-53-41 84-105 148zm0-832q74 75 117 176 57-23 107-62-93-92-224-114zm119 655q57 23 109 60 117-117 125-283h-187q-4 117-47 223zm10-450q33 92 37 196h187q-6-151-107-264-55 43-117 68z" fill="currentColor"/></svg>