<svg xmlns="http://www.w3.org/2000/svg" width="1024" height="1024"><path d="M1011 479q-8-123-73-228-63-103-165-166-105-64-228-72v-1h-66v1q-123 8-228 72-102 63-165 166-65 105-73 228h-1v66h1q8 123 73 228 63 102 165 165 105 65 228 73v1h66v-1q123-8 228-73 102-63 165-165 65-105 73-228h1v-66h-1zM325 121q-50 68-78 158H147q32-51 77.5-91.5T325 121zM112 345h117q-13 60-16 134H80q6-70 32-134zM80 545h133q3 72 16 134H112q-26-64-32-134zm67 200h100q28 91 78 158-55-26-100.5-66.5T147 745zm332 196q-51-13-94-65t-70-131h164v196zm0-262H297q-15-63-18-134h200v134zm0-200H279q3-71 18-134h182v134zm0-200H315q27-79 70-131t94-65v196zm398 0h-99q-30-92-79-158 55 26 100.5 66.5T877 279zM545 83q51 13 94 65t70 131H545V83zm0 262h182q15 63 18 134H545V345zm0 200h200q-3 71-18 134H545V545zm0 396V745h164q-27 79-70 131t-94 65zm154-38q49-65 79-158h99q-32 51-77.5 91.5T699 903zm213-224H795q15-70 16-134h133q-4 70-32 134zM811 479q-1-66-16-134h117q28 64 32 134H811z" fill="currentColor"/></svg>