<svg xmlns="http://www.w3.org/2000/svg" width="1024" height="1024"><path d="M547.5 83q-26 0-44 19t-18 44v366h-18V217q0-25-19-44t-44-18q-25 1-44 18t-18 44v438l-86-115q-21-28-57-28-30 0-51 21t-21 50q0 24 15 43l214 286q21 29 57 29h384q19 0 34-13t19-31l43-226q2-18 2-33V360q0-26-18-44t-44-18q-26 0-44 18t-19 44v152h-18V217q0-25-18-44t-44-18q-26 1-44 18t-19 44v295h-17V146q0-26-19-44t-44-19zm0-71q38 0 70 20t50 54q10-3 23-3 55 0 95 40t39 94v10q59-4 101 36t42 97v278q0 22-5 46l-42 226q-8 44-43 73t-80 29h-384q-33 0-64-15t-50-42l-214-286q-29-38-29-86 0-59 42-101t101-41q43 0 71 18V217q0-55 40-94t94-40q13 0 24 3 17-34 49-54t70-20z" fill="currentColor"/></svg>