<svg xmlns="http://www.w3.org/2000/svg" width="1024" height="1024"><path d="M512.5 190q-30 0-51 21t-21 51v71h-18v-52q0-27-18-45t-44-18.5q-26-.5-44 17.5t-19 45v239l-18-17v-96q0-27-17-45t-45-19q-26 0-44 18t-19 45v125q0 26 20 45l173 165q22 22 22 57 0 15 10 25t25 11h358q14 0 25-11t10-25v-14q0-22 6-43l60-243q6-20 6-43V317q0-27-18-46t-45-18q-25 0-44 18t-18 44v18h-18v-70q0-22-14-40t-36-23q-8-1-13-1-25 0-44 19t-18 44v71h-18v-68q0-28-18-50t-46-24q-3-1-7-1zm0-71q46 0 83 28 32-19 68-19 33 0 62 15t48 42q15-4 33-4 56 0 95 40t39 96v137q0 29-7 60l-61 244q-3 13-3 39 0 45-31 76t-76 32h-358q-46 0-77-33t-30-80l-172-165q-42-41-42-97V405q0-56 39-95t95-39h9q3-53 42-89t92-36q29 0 55 11 40-38 97-38z" fill="currentColor"/></svg>