<svg xmlns="http://www.w3.org/2000/svg" width="1024" height="1024"><path d="M85.2006 586.6728q18.3142 0 24.6843-14.3328 6.3702-14.3328 0-28.6656-6.3701-14.3328-24.6843-14.3328-18.3141 0-24.6843 14.3328-6.3701 14.3328 0 28.6656 6.3702 14.3328 24.6843 14.3328zm654.5319-26.2768q-3.9813-5.5739-16.7216-21.4992-12.7403-15.9254-18.3142-24.6843-5.5738-8.759-17.5178-21.4992-11.944-12.7403-18.3142-23.888-6.3701-11.1478-18.3142-20.703-11.944-9.5552-19.9066-21.4992l-55.7388 62.1088q-36.6283 41.406-92.367 40.6097-55.7387-.7963-91.5708-42.9985-25.4805-31.0544-24.6843-70.0715.7963-39.0171 25.4806-70.0716l78.8305-91.5707q-9.5552-4.7776-22.2955-7.1664-12.7403-2.3888-21.4992-3.1851-8.759-.7963-24.6843.7963-15.9254 1.5925-22.2955 0-40.6096 0-70.0715 29.4619l-70.0716 70.0715h-69.2753v242.0653h19.1105l8.759.7963q6.37.7963 9.5551 1.5925 3.185.7963 7.1664 3.9814 3.9814 3.185 8.759 5.5738l131.3841 129.7916q51.7574 49.3686 101.126 49.3686 35.0358 0 55.7387-20.703 25.4806 8.759 50.1649-3.185 24.6842-11.944 31.8507-38.2208 32.647 3.185 56.535-19.1105 8.7589-7.9626 15.9253-20.703 7.1664-12.7402 6.3701-22.2954 3.9814 4.7776 19.1104 4.7776 19.1105 0 34.2396-9.5552 15.129-9.5552 22.2954-23.888 7.1664-14.3328 4.7776-31.8507-2.3888-17.518-13.5365-32.647zm70.8678 26.2768h42.2022V358.9403h-40.6097l-70.0715-79.6267q-29.4619-34.2395-74.8491-34.2395H592.423q-39.017 0-64.4977 30.2581L434.762 382.8283q-11.944 15.1291-11.944 33.4433 0 18.3141 11.944 33.4432 19.1105 22.2955 48.5724 23.0918 29.4619.7962 49.3685-21.4993l85.997-97.1446q11.1477-10.3515 23.888-9.5552 12.7402.7963 20.703 11.944 7.9626 11.1478 3.9813 25.4806l50.961 58.1275q13.5366 15.9254 36.6284 46.9798 23.0917 31.0544 28.6656 37.4246 23.0918 29.4619 27.0731 62.1088zm128.1991 0q17.5179 0 24.6843-14.3328 7.1664-14.3328 0-28.6656t-24.6843-14.3328q-17.5179 0-25.4806 14.3328-7.9627 14.3328 0 28.6656t25.4806 14.3328zM1024 330.2747v285.0638q0 11.1477-8.7589 19.9066-8.759 8.759-19.9067 7.9627H802.6376q-11.944 29.462-36.6283 47.776-24.6843 18.3142-55.7387 22.2956-14.3328 21.4992-35.832 36.6283-21.4993 15.129-45.3873 19.9066-18.3141 23.888-46.1835 36.6284-27.8694 12.7402-57.3313 11.1477-26.2768 15.129-55.7387 17.5179-29.4619 2.3888-56.535-6.3702-27.073-8.7589-52.5536-23.888-25.4806-15.129-45.3873-35.832L187.9191 643.2078H28.6656q-11.944 0-19.9067-7.9627Q.7963 627.2825 0 615.3385V316.7382q0-11.944 8.759-20.703 8.7589-8.759 19.9066-7.9627h187.1229l41.4059-42.9984q6.3701-6.3702 19.9067-17.518 13.5365-11.1477 22.2955-16.7215 8.759-5.5739 23.0917-11.1478 14.3329-5.5738 27.0731-8.759 12.7403-3.185 30.2582-2.3887h51.7574q44.591 0 80.423 24.6843 36.6283-24.6843 80.423-24.6843h74.8492q15.129 0 29.4619 2.3888 14.3328 2.3888 25.4805 6.3701 11.1478 3.9814 22.2955 11.944 11.1477 7.9627 19.9067 13.5366 8.759 5.5738 19.1104 17.5179 10.3515 11.944 17.5179 19.1104 7.1664 7.1664 18.3141 21.4992 11.1478 14.3328 18.3142 21.4992h157.661q11.944 0 19.9067 7.9627 7.9626 7.9627 8.7589 19.9067z" fill="currentColor"/></svg>