<svg xmlns="http://www.w3.org/2000/svg" width="1024" height="1024"><path d="M404.5 83q-29 0-50 21t-21 51v500l-84-113q-23-30-60-30-29 0-50 21t-21 50q0 24 15 43l214 286q21 29 57 29h401q12 0 22-8t12-19l52-206q13-53 13-108V479q0-23-15-40t-38-16q-23 1-38 15t-16 38h-18v-34q0-27-18-45t-44-18.5q-26-.5-44 17.5t-19 45v35h-18v-50q0-31-20-53T566 351q-30.5 0-51.5 21t-21 51v53h-17V158q0-31-21-53t-51-22zm0-71q60 0 101 43t42 103v123q12-1 18-1 55 0 96 38 27-11 56-11 63 0 102 48 15-4 32-4 52 0 88 38t37 90v121q0 65-16 126l-51 205q-9 36-38 58t-66 23h-401q-33 0-64-15t-50-42l-214-286q-29-38-29-86 0-58 42-100t100-42q39 0 72 19V155q0-59 42-101t101-42zm72 786V583h-18v215h18zm142 0V583h-17v215h17zm143 0V583h-18v215h18z" fill="currentColor"/></svg>