<svg xmlns="http://www.w3.org/2000/svg" width="1024" height="1024"><path d="M965 374.5161q-1-64-32.5-116t-85-82q-53.5-30-117.5-29-48 1-97 27-34 19-64 48l-55 49-55-49q-38-36-83.5-55.5t-93.5-19.5q-43 0-82.5 16.5t-70.5 47.5q-31 31-50 76t-20 90v1q0 45 23 84 16 27 64 79h1l317 315h1q20 20 48.5 20t50.5-20l306-306v-1q44-47 66-83 29-48 29-92zm-55 8q0 27-26 62-17 23-69 79l-276 273q-9 10-25 10t-26-10l-268-262-30-31q-40-41-54-61-23-31-23-57 1-37 16.5-74.5t41.5-62.5q23-23 56-33 28-8 67-8 36 0 78 25 31 19 69 55l73 65 72-65h1l10-10q30-30 51-45 37-25 71-26h3q52 0 94.5 22.5t67.5 62.5q25 40 26 91z" fill="currentColor"/></svg>