<svg xmlns="http://www.w3.org/2000/svg" width="1024" height="1024"><path d="M869.5 83q0 146-60 258t-148 171q89 59 148 171t60 258h53q8 0 13 5t5 12v36q0 8-5 13t-13 5h-821q-8 0-13-5t-5-13v-36q0-7 5-12t13-5h53q0-146 60-258t149-171q-90-59-149-171t-60-258h-53q-8 0-13-5t-5-12V30q0-8 5-13t13-5h821q8 0 13 5t5 13v36q0 7-5 12t-13 5h-53zm-298 395q43-16 83-51t72-85q32-50 52-117t19-142h-571q0 74 19 142t52 117q33 49 72 85t83 51q11 4 17 14t7 20q1 10-7 20t-17 13q-76 29-136 110h391q-60-81-136-110-11-3-17-13t-7-20q-1-10 7-20t17-14z" fill="currentColor"/></svg>