<svg viewBox="0 0 1024 1024" xmlns="http://www.w3.org/2000/svg" fill-rule="evenodd" clip-rule="evenodd" stroke-linejoin="round" stroke-miterlimit="2"><path d="M131.475 956.05c-16.669.666-31.334-5.334-44-18-12.667-12.667-19-27.667-19-45v-760c.667-18 7-33 19-45s26.666-18 44-18c0 0 266.481-.048 338.525-.048 10.604 0 2.523 5.473-7.421 16.127-10.036 10.752-15.053 23.297-15.053 37.634 0 9.539 3.116 39.053 32.474 56.237H180v670h660V550c17.063 16.494 47.609 15.905 57.762 15.905 14.337 0 26.882-5.376 37.634-16.129 10.154-10.154 16.686-7.595 16.079 6.752V893.05c.667 18-5.333 33-18 45-12.666 11.999-27.331 17.999-44 18h-758zM897.866 70.12c1.205-.08 2.425-.12 3.659-.12 13.333 0 25 5 35 15s15 21.667 15 35v323.997c0 13.333-5 25-15 35s-21.667 15-35 15c-13.333 0-25-4.667-35-14s-15-21.333-15-36V239.923L505.591 585.858C496.163 595.286 484.377 600 470.235 600c-14.142 0-25.927-4.714-35.355-14.142-9.428-9.428-14.378-20.978-14.849-34.648-.472-13.671 4.478-25.692 14.849-36.063L780.027 170H570c-13.333 0-25-5-35-15s-15-21.667-15-35c0-13.333 4.667-25 14-35s21.333-15 36-15h323.997c1.311 0 2.6.04 3.869.12z" fill-rule="nonzero"/></svg>