<svg viewBox="0 0 1024 1024" xmlns="http://www.w3.org/2000/svg" fill-rule="evenodd" clip-rule="evenodd" stroke-linecap="round" stroke-linejoin="round" stroke-miterlimit="1.5"><path d="M103 979.95c-16.78.621-31.382-5.382-44-18-8.478-8.478-14.119-18.001-16.911-28.592-1.397-5.2-2.089-10.676-2.089-16.408v-810c.667-18 7-33 19-45s26.666-18 44-18l458.525-.05L921 43.95c17.334-.666 32 5.334 44 18 12 12.667 18 27.667 18 45L980.338 580v190H980v146.95c.667 18-5.333 33-18 45-12.618 11.954-27.22 17.954-44 18H103zm798.525-366.976L735.584 447.033 539.086 644.374c-.09.092-.181.183-.272.274l-.089.088-.121.122C529.176 654.286 517.391 659 503.249 659c-14.142 0-25.927-4.714-35.355-14.142a55.061 55.061 0 01-2.75-2.957l-83.808-77.79-259.811 259.811V903.9h780V612.974zm0-489.074h-780v588.601L344.146 489.88c10.371-10.371 22.391-15.321 36.062-14.849.611.021 1.217.051 1.819.09 12.835.064 24.18 5.024 34.035 14.879l86.004 79.828 197.223-198.069.002-.002c.28-.293.565-.585.854-.874 9.428-9.428 20.978-14.378 34.648-14.849 13.671-.472 25.692 4.478 36.063 14.849l130.669 130.669V123.9zM310 200c55.192 0 100 44.808 100 100s-44.808 100-100 100-100-44.808-100-100 44.808-100 100-100z" stroke="#ebebeb"/></svg>