<svg xmlns="http://www.w3.org/2000/svg" width="1024" height="1024"><path d="M298.5 744v108q0 22-16 37t-38 16h-178q-23 0-38-16t-16-37V744q0-22 16-38t38-15h178q23 0 38 15t16 38zm712-285v107q0 22-16 38-15 15-38 15h-178q-23 0-38-15-16-16-16-38V459q0-23 16-38 17-16 38-16h178q23 0 38 16 16 17 16 38zm2 285v108q0 22-16 37t-38 16h-535q-23 0-38-16t-16-37V744q0-22 16-38t38-15h535q23 0 38 15t16 38zm-714-571v107q0 22-16 38t-38 16h-178q-23 0-38-16t-16-38V173q0-22 16-38t38-16h178q23 0 38 16t16 38zm356 286v107q0 22-16 38-15 15-38 15h-535q-23 0-38-15-16-16-16-38V459q0-23 16-38 17-16 38-16h535q23 0 38 16 16 17 16 38zm358-286v107q0 22-16 38t-38 16h-535q-23 0-38-16t-16-38V173q0-22 16-38t38-16h535q23 0 38 16t16 38z" fill="currentColor"/></svg>