<svg xmlns="http://www.w3.org/2000/svg" width="1024" height="1024"><path d="M860.5 726.5q0-23-16-38l-116-116q-16-16-39-16t-39 18l22 22q3 3 9 11t7 14l2 15q0 23-16 38t-38 16q-8 0-15-2t-14-7q-7-5-11-9l-22-22q-19 17-19 40t16 38l115 116q15 15 37.5 15t38.5-15l82-81q16-16 16-37zm-393-394q0-22-15-38l-115-115q-16-16-38-16t-38 15l-82 82q-16 15-16 37t16 38l116 116q15 15 38 15t40-17l-23-23q-3-3-8-10t-7-14q-2-7-2-16 0-22 15-38t38-15q9 0 16 2t14 7l11 8q4 3 12 12l10 11q18-17 18-41zm500 394q0 66-48 113l-82 81q-46 47-113.5 47t-113.5-48l-115-115q-46-47-46-114.5t49-115.5l-49-49q-48 49-115.5 49t-114.5-47l-116-116q-47-47-47-114t47-113l82-82q47-46 114-46t114 47l115 116q46 46 46 114t-49 116l49 49q48-49 115.5-49t114.5 47l116 116q47 47 47 114z" fill="currentColor"/></svg>