<svg viewBox="0 0 1024 1024" xmlns="http://www.w3.org/2000/svg" fill-rule="evenodd" clip-rule="evenodd" stroke-linejoin="round" stroke-miterlimit="2"><path d="M650.5 463.5v-148c0-42-14-77.667-42-107-26.667-28-58.667-42.333-96-43-38.667.667-71.333 15-98 43-27.333 29.333-41 65-41 107V340h-126v-24.5c0-36 6.667-70.667 20-104s32-62.667 56-88 52.333-45 85-59 67.167-21 103.5-21 70.833 7 103.5 21 61 33.833 85 59.5 42.667 54.833 56 87.5c13.333 32.667 20 67.333 20 104v148h46c9.387.022 17.356 3.356 24 10 6.667 6.667 10 15 10 25v393c0 4.667-1 8.667-3 12s-4.333 6-7 8l-10 7c-4 2.667-8.667 4.667-14 6-12.667 5.333-30.333 11.333-53 18s-59.667 14.667-111 24-100.333 14-147 14c-100.667 0-204-18.667-310-56-10.667-4-19-8.333-25-13s-9-11.333-9-20v-393c0-10 3.333-18.333 10-25 6.667-6.667 14.667-10 24-10h449z"/></svg>