<svg xmlns="http://www.w3.org/2000/svg" width="1024" height="1024"><path d="M511 22.5h2q5 5 15 13t14 14q62 54 93 82h148q24 0 42 12 14 11 23 27t8 33v123l109 94v505q0 27-15 47-10 13-24 21t-31 8H129q-21-1-39-14t-26-32q-5-12-5-38v-496q64-56 97-84l4-4q5-4 7-7 1-23 0-68v-47q0-20 4-30 7-21 26-36t41-14q33-1 98 0h50q3 0 7-4l102-90zm-71 109h141q-46-42-69-62l-27 23q-31 25-45 39zm-226 46q-10 9-10 26v297q38 34 116 102h384l116-105v-292q1-15-11-27t-28-11H241q-17 0-27 10zm-101 244q9 8 27 25l27 25v-97q-18 15-54 47zm743-47v94q21-19 55-47-21-19-55-47zm-761 83v470q-1 15 11 27l279-243zm544 254q140 121 279 243 11-11 11-27v-470l-101 88zm-279-73q8 8 25 23l54 50h145q50-48 77-73H360zm-211 327h725q-129-113-254-218H403zm127-689h472v36H276v-36zm0 145v-37h471q1 12 1 37H276zm0 72h472v36q-105 1-315 0H276v-36z" fill="currentColor"/></svg>