<svg xmlns="http://www.w3.org/2000/svg" viewBox="-58 -200 1000 1000"><path fill="currentColor" d="M359 450l4 426c.2483 18.9968-19.1455 52.2422-44.623 59.8213-20.6133 6.1328-44.249.6777-60.0889-13.8916-12.6162-11.6016-20.0156-28.6445-20.1797-45.5654-2.2358-230.593-.001-451.759-.001-682.364l-48.5117-.4893v682.66c-.084 27.2695-19.1455 52.2422-44.623 59.8213-20.6133 6.1329-44.249.6778-60.0889-13.8916-12.6162-11.6016-20.0156-28.6445-20.1797-45.5654-.7138-230.603-.001-452.419-.001-683.024h-60c-21 0-41.5859-11.4297-52.7568-29.0889-10.5234-16.6367-12.502-38.3506-5.167-56.6162C-44.038 84.938-20.3562 68.8542 4.342 68.6197l282.658-.6191c10.831 0 43.085 10.8965 58 40 82 160 268 612 268 612s86.5938-371.403 172-602c10-27 26-41 54-50 42-13 101.703.6191 101.703.6191 24.6992.0782 48.3799 16.3184 57.5625 39.1865l1.6582 768.368c.0449 20.8252-11.2324 41.3086-28.7705 52.5527-16.7021 10.708-38.5645 12.7461-56.9346 5.3702-22.8701-9.1827-38.9531-32.8818-39.1875-57.5645-.714-230.602 0-432.417 0-663.021l-194.474 662.66c-7.2862 25.5752-19.1455 52.2422-44.623 59.8213-20.6133 6.1328-44.249.6777-60.089-13.8916-12.6151-11.6035-56.2118-103.826-60.8456-120.101z"/></svg>