<svg xmlns="http://www.w3.org/2000/svg" width="1024" height="1024"><path d="M699 459q38 38 60 86 22 51 22 106 0 73-37 136-36 60-98 96.5T511.5 920Q439 920 376 883q-61-36-97-97.5T243 651q0-56 21-105.5t59-86.5V293q0-51 25.5-94.5t69-69Q461 104 512 104t94 25.5q43 25.5 68 69t25 94.5v166zM424 293v104q84-31 174 0V293q0-35-25.5-61t-61-26q-35.5 0-61.5 25.5T424 293zm-20 388v-60h-85l-12 30 12 30h85zm53 65l-43-43-61 63 13 30 30 11zm84 10h-60v85l30 12 30-12v-85zm65-53l-43 43 61 61 32-11 11-30zm10-82v60h85l12-30-12-30h-85zm-53-67l43 43 61-61-11-30-32-13zm-82-10h60v-85l-30-12-30 12v85zm-67 53l43-43-61-61-30 11-13 32z" fill="currentColor"/></svg>