<svg xmlns="http://www.w3.org/2000/svg" width="1024" height="1024"><path d="M607 407.5q73 0 136 37 61 35 97 96.5t36 134q0 72.5-36 134.5t-98 98q-62 36-135 36t-134.5-36q-61.5-36-97.5-97-37-63-37-136 0-56 22.5-107t62.5-88v-211q0-36-25.5-61t-61.5-25q-36 0-61.5 25t-25.5 61v130H148v-130q0-51 25.5-94T242 106q43-25.5 94-25.5t94 25.5q43 25.5 68.5 68.5t25.5 94v151q36-12 83-12zm-106 297v-60h-85l-13 30 13 30h85zm52 65l-42-42-62 62 13 30 30 11zm84 10h-60v85l30 13 30-13v-85zm65-52l-43 42 62 61 31-11 11-30zm10-83v60h85l12-30-12-30h-85zm-53-66l43 42 61-61-11-30-31-12zm-82-10h60v-85l-30-13-30 13v85zm-66 52l42-42-61-61-30 11-13 31z" fill="currentColor"/></svg>