<svg xmlns="http://www.w3.org/2000/svg" width="1024" height="1024"><path d="M11.9964 918.0172v-500q0-39 27-66t67-28h94q32 0 60 24l33-16q123-64 125-226 0-39 28-67t66-27q57 0 105 64t49 147q0 66-8 103 237 6 266 14 43 12 66 43t22 63v23q-2 39-27 68 17 34 11 75-7 54-41 86 16 37 0 83-17 59-52 83 7 27 0 54-6 18-14 34-33 60-111 60h-172q-92 0-186-21l-127-30h-2q0-2-3-2h-4v-2q-28 55-84 55h-94q-39 0-67-27t-27-67zm63 0q0 14 8 23t23 9h94q13 0 22-9t9-23v-500q0-13-9-22t-22-9h-94q-14 0-23 9t-8 22v500zm31-47q0-19 13-33t34-14q21 0 33 14t14 33q2 19-14 34t-33 13q-17-2-34-13t-13-34zm31 0q0 16 16 16t15-16q-1-16-15-15t-16 15zm125-3q0 23 27 27 22 6 145 35 88 20 172 20h172q41 0 56-28 6-15 8-23 6-12-2-28t-29-15h-49q-16 0-16-16t16-16h51q31 0 49-10t22-20q4-10 11-30 21-65-39-65h-63q-15 0-15-15t15-16h74q57 0 69-66 2-22-9-40t-42-19h-61q-15 0-15-15t15-16h63q61 0 62-45v-21q0-38-37-47-45-12-337-12 19-59 24-84t5-81q0-56-32-102t-60-45q-31 0-31 31-2 92-46 173t-142 122q-2 0-4 1l-2 1q-25 7-25 33v432z" fill="currentColor"/></svg>