<svg xmlns="http://www.w3.org/2000/svg" width="1024" height="1024"><path d="M996 518.5H37v-127h959v127zm-516 135H39v-76h441v76zm513 0H540v-76h453v76zm3 215H37v-151h959v151zm-616 135H37v-76h343v76zm184 3H412v-79h152v79zm429-3H616v-76h377v76zm-821-986q-39 0-72 19.5T47.5 90Q28 123.5 28 162.5T47.5 235Q67 268.5 100 288t72 19.5q39 0 72.5-19.5t53-53q19.5-33.5 19.5-72.5T297.5 90q-19.5-33.5-53-53T172 17.5zm0 248q-43 0-73-30t-30-73q0-43 30-73t73-30q43 0 73 30t30 73q0 43-30 73t-73 30zm343-248q-39 0-72.5 19.5t-53 53Q370 123.5 370 162.5t19.5 72.5q19.5 33.5 53 53t72.5 19.5q39 0 72.5-19.5t53-53q19.5-33.5 19.5-72.5T640.5 90q-19.5-33.5-53-53T515 17.5zm0 248q-43 0-73-30t-30-73q0-43 30-73t73-30q43 0 73 30t30 73q0 43-30 73t-73 30zm334-248q-39 0-72.5 19.5t-53 53Q704 123.5 704 162.5t19.5 72.5q19.5 33.5 53 53t72.5 19.5q39 0 72-19.5t52.5-53q19.5-33.5 19.5-72.5T973.5 90Q954 56.5 921 37t-72-19.5zm0 248q-28 0-52-14T759 214q-14-23.5-14-51.5t14-51.5q14-23.5 38-37.5t52-14q43 0 73 30t30 73q0 43-30 73t-73 30z" fill="currentColor"/></svg>