<svg viewBox="0 0 1024 1024" xmlns="http://www.w3.org/2000/svg" fill-rule="evenodd" clip-rule="evenodd" stroke-linejoin="round" stroke-miterlimit="2"><path d="M523.9517 198.1552c0 236.1383.7313 463.2781 0 699.4138-.2395 25.2754-16.7091 49.5432-40.1278 58.9459-18.8104 7.5535-41.1974 5.4662-58.3007-5.4992-17.9588-11.5141-29.3906-32.3144-29.4615-53.8142V558.3979c-21.8332 0-43.6663.033-65.4995 0-62.3817-.3017-125.3971-25.7748-170.6831-70.5234-38.6665-38.2077-64.0382-89.4415-70.7287-143.2773-9.428-75.859 19.069-155.5392 75.4737-208.37 44.3812-41.57 104.351-65.6667 165.9381-65.9608 146.2113-.2319 352.4242-.465 498.6355 0 25.2918.2396 49.5418 16.7092 58.9445 40.1266 7.5105 18.704 5.4853 40.9389-5.2913 57.975-11.4393 18.083-32.2877 29.7175-54.0233 29.7872H738.343c0 236.1395.73 463.2794-.0013 699.4164-.1673 17.3276-7.745 34.7794-20.6633 46.6598-16.22 14.9183-40.4231 20.505-61.5313 14.225-26.089-7.7613-45.608-33.3333-45.6942-61.2575V198.1552h-86.5012zm-127.89 0h-64.6922c-54.8408.0887-107.4269 42.8666-115.1668 100.6617-4.8655 36.3408 8.6841 74.5878 35.2965 99.8112 21.2958 20.1856 50.4215 31.8328 79.8703 31.8797h64.6922V198.1552z" fill-rule="nonzero"/></svg>