<svg xmlns="http://www.w3.org/2000/svg" width="1024" height="1024"><path d="M125 370.9q0-63 27-125t76-115q49-53 130-86t178-33q159 0 261 98t102 231q0 171-86 282t-224 112q-45 0-84-21t-56-51l-40 158q-5 19-13 38t-17 38q-9 19-19 34t-19 30q-9 15-17 24t-13 16l-6 8q-3 4-8 3t-6-6l-1-14q-1-13-3-27t-3-38q-1-24-1-44t3-48q3-28 7-48l74-313q-8-16-13-39t-5-36l-1-15q0-64 33-107t78-42q37 0 58 24t20 62q0 23-8 56t-23 77q-15 44-20 71-10 45 18 78t73 33q79 0 131-90t51-216q0-97-63-159t-176-61q-126 0-204 81t-79 194q0 67 38 113 13 15 8 32-2 5-6 23t-6 23q-2 11-10 14t-18 0q-59-24-88-83t-30-136z" fill="currentColor"/></svg>