<svg xmlns="http://www.w3.org/2000/svg" width="1024" height="1024"><path d="M658 244.2437q181.82-10.05 266 14 43 12 66 43 22 30 22 63v23q0 37-27 68 17 34 11 75-7 54-41 86 15 35 0 83-19 60-52 83 8 30 0 54-6 18-14 34-33 60-111 60H606q-97.1 0-186-21l-127-30h-2q0-2-3-2h-4v-2q-28 55-84 55h-94q-39 0-67-27-27-26-27-67v-500q0-39 27-66 28-28 67-28h94q32 0 60 24zm-583 592q0 14 8 23t23 9h94q13 0 22-9t9-23v-500q0-13-9-22t-22-9h-94q-14 0-23 9t-8 22v500zm31-47q0-19 13-33t34-14q21 0 33 14t14 33q2 19-14 34t-33 13q-17-2-34-13t-13-34zm31 0q0 16 16 16t15-16q-1-16-15-15t-16 15zm156-470q-2 0-4 1l-2 1q-25 7-25 33v432q0 21 27 27 22 5 145 35 84 20 172 20h172q44 0 56-28 4-9 8-23 5-14-2-28-8-15-29-15h-49q-16 0-16-16t16-16h51q31 0 49-10t22-20q4-10 11-30 21-65-39-65h-63q-15 0-15-15 0-16 15-16h74q59 0 69-66 3-20-9-40-12-19-42-19h-61q-15 0-15-15 0-16 15-16h63q62 0 62-45v-21q0-47-37-47-612 2-619 2z" fill="currentColor"/></svg>