<svg xmlns="http://www.w3.org/2000/svg" width="1024" height="1024"><path d="M1016.9368 771.221L769.4986 204.7416q-7.2509-15.4083-20.3932-24.0187-13.1423-8.6105-29.457-8.6105H547.4388l4.5319 40.7865q.9063 6.3446-3.6255 10.8764-4.5318 4.5318-10.8764 4.5318h-51.663q-6.3445 0-10.4231-4.5318-4.0787-4.5318-3.1723-10.8764l3.6254-40.7865H303.626q-16.3146 0-29.457 8.6105-13.1422 8.6104-19.4868 24.0187L7.244 771.221q-8.1573 18.1273-3.6255 37.161 4.5319 19.0337 19.0337 31.2697 14.5019 12.236 33.5356 12.236h348.045L422.36 678.7714q1.8127-10.8764 9.5168-18.1273 7.7041-7.251 18.5806-7.251H572.817q10.8764 0 18.5805 7.251t9.5169 18.1273l18.1273 173.1161h348.045q19.0336 0 33.5356-12.236 14.5018-12.2359 19.4869-31.2696 4.9849-19.0337-3.1724-37.161zM463.1466 298.0974q.9064-5.4382 4.5318-9.0637 3.6255-3.6254 9.0637-3.6254h69.7903q5.4382 0 9.5168 3.6254 4.0787 3.6255 4.0787 9.0637l8.1573 77.0412q.9063 9.0637-4.985 16.3146-5.8914 7.251-15.8615 7.251h-71.603q-9.97 0-15.8614-7.251-5.8914-7.251-4.985-16.3146zm97.8876 299.101h-97.8876q-12.6891 0-21.2996-9.5168-8.6105-9.5168-7.7041-22.206l9.0636-85.1985q1.8128-10.8764 9.5169-18.1273 7.704-7.251 18.5805-7.251h80.6667q10.8764 0 18.5805 7.251t9.5168 18.1273l9.0637 85.1985q.9064 12.6892-7.251 22.206-8.1572 9.5169-20.8464 9.5169z" fill="currentColor"/></svg>