<svg xmlns="http://www.w3.org/2000/svg" width="1024" height="1024"><path d="M87.2 112Q56 112 34 134q-22 22-22 53.2v100q0 10.4 7.2 17.6 7.2 7.2 17.6 7.2h125.6V187.2q0-31.2-22.4-53.2-22.4-22-52.8-22zM412 756.8v-95.2h450.4v-400q0-40.8-20.4-75.2-20.4-34.4-54.8-54.4T712 112H186.4q25.6 33.6 25.6 75.2v574.4q0 29.6 16.4 54.4 16.4 24.8 43.2 37.2 26.8 12.4 57.2 7.6 36.8-5.6 60-36 23.2-30.4 23.2-68zm50.4-44.8v49.6q0 40.8-20.4 75.2-20.4 34.4-54.8 54.8T312 912h524.8q48 0 88-23.6t63.6-63.6q23.6-40 23.6-88 0-10.4-7.2-17.6-7.2-7.2-17.6-7.2H462.4z" fill="currentColor"/></svg>