<svg xmlns="http://www.w3.org/2000/svg" width="1024" height="1024"><path d="M818.3906 116.6152q-16.6656-18.0747-34.6132-29.3714l-10.2557-6.778Q754.292 69.169 738.2675 62.391q-16.0246-6.778-49.3558-18.0747-20.5115-5.6484-56.4066-12.4264-56.4067-11.2967-121.787-11.2967h-2.564q-61.5345 0-120.505 11.2967-35.8952 6.778-55.1248 12.4264l-11.5377 3.389q-28.2033 9.0374-38.459 14.6857-21.7935 9.0374-44.228 23.7231-22.4344 14.6857-35.2541 28.2418-6.4099 6.778-6.4099 14.6857v422.4969q-2.5639 48.5758 19.2296 92.633 21.7934 44.0571 65.3804 75.688 55.1246 38.4087 126.915 51.9648l12.8196 2.2593v-41.7978l-8.9738-2.2593q-53.8427-10.167-102.5575-41.7979-33.3312-24.8527-51.2788-61.0022-17.9475-36.1495-16.6655-75.688V136.9494q8.9737-11.2967 23.0754-18.0747 14.1017-11.2967 34.6132-18.0748l3.8459-2.2593q21.7934-10.167 43.5869-15.8154 24.3574-6.778 51.2788-11.2967 44.8689-9.0374 89.7378-9.0374v68.91q-25.6394 6.778-42.305 25.9824t-16.6656 42.9275v105.0593q0 24.8528 16.6656 43.4924 16.6656 18.6395 42.305 25.4176v63.2615q0 7.9077 7.0508 13.556 7.0508 5.6484 16.0246 5.6484t16.0246-5.6483q7.0509-5.6484 7.0509-13.556v-63.2616q25.6393-6.778 42.305-26.5473 16.6656-19.7692 16.6656-42.3627V200.211q0-24.8528-16.6656-43.4924-16.6656-18.6395-42.305-25.4176V62.391q44.8689 0 89.7378 9.0374l7.6918 1.1297q29.4853 6.778 43.587 10.167 23.0754 5.6484 46.1508 15.8154l7.6919 3.389q19.2295 9.0374 26.9213 14.6857l3.846 2.2594q7.6917 4.5186 23.0754 18.0747v412.3298q2.5639 38.4088-15.3837 74.5583-17.9475 36.1495-52.5607 63.2616-53.8427 33.89-102.5575 42.9274l-8.9738 2.2594v39.5385l12.8197-1.1297q73.0722-13.556 126.915-53.0945 43.5869-31.6308 65.3803-76.2528 21.7935-44.622 19.2296-92.0682V127.912q-3.846-7.9077-8.9738-11.2967zM551.741 200.211v105.0593q0 14.6858-12.1787 25.4176-12.1787 10.732-28.8443 10.732t-28.8443-10.732q-12.1787-10.7318-12.1787-25.4176V200.211q0-15.8154 12.1787-25.9825 12.1787-10.167 29.4853-10.167t28.8443 10.167q11.5377 10.167 11.5377 25.9825zm-41.023 803.1959q-8.9738 0-14.1016-4.5187l-128.197-112.967q-3.8458-6.7781-2.5639-14.121 1.282-7.3428 7.6919-10.7318 6.4098-3.389 12.8196-3.389 6.4099 0 11.5378 3.389l112.8132 99.411 112.8133-99.411q6.4098-5.6484 15.3836-5.0836 8.9738.5649 14.1017 6.2132 7.6918 12.4264 0 23.7231l-128.197 112.967q-5.1278 4.5188-14.1016 4.5188zm0-27.1121q-8.9738 0-14.7426-5.0836-5.7689-5.0835-5.7689-12.9912V621.578q0-9.0373 5.7689-13.556 5.7689-4.5187 15.3836-4.5187 9.6148 0 14.7427 4.5187 5.1278 4.5187 5.1278 13.556V958.22q0 6.778-6.4098 12.4263-6.4099 5.6484-14.1017 5.6484z" fill="currentColor"/></svg>