<svg xmlns="http://www.w3.org/2000/svg" width="1024" height="1024"><path d="M825 304q-27 0-47 14-8-25-29.5-40.5T700 262q-27 0-47 14-8-24-29.5-40T575 220q-23 0-42 11V95q0-35-24-59t-59-24q-35 0-59.5 24.5T366 95v487l-114-57q-26-13-56-13-33 0-56.5 23.5t-23.5 56q0 32.5 24 56.5l269 270q46 46 104.5 70t123.5 24q73 0 135.5-36.5T871 878q37-63 37-137V387q0-35-24-59t-59-24zm41 437q0 62-31 115t-83.5 83.5Q699 970 637 970q-56 0-107.5-21T438 888L169 619q-11-13-11-28t11-26q11-11 27-11 19 0 37 8l145 73q11 5 20.5-1.5T408 616V95q0-17 12.5-29T450 54q17 0 29 12t12 29v396q0 9 6.5 15t15 6q8.5 0 14.5-6t6-15V304q0-17 12.5-29.5T575 262q17 0 29 12.5t12 29.5v187q0 9 6.5 15t14.5 6q8 0 14.5-6t6.5-15V345q0-17 12.5-29t29.5-12q17 0 29 12t12 29v146q0 9 6.5 15t15 6q8.5 0 14.5-6t6-15V387q0-17 12.5-29.5T825 345q17 0 29 12.5t12 29.5v354z" fill="currentColor"/></svg>