<svg viewBox="0 0 1024 1024" xmlns="http://www.w3.org/2000/svg" fill-rule="evenodd" clip-rule="evenodd" stroke-linejoin="round" stroke-miterlimit="2"><path d="M520.375 85.001c36.503.16 72.794 11.442 102.349 32.434 29.827 21.185 52.806 52.045 63.882 86.879 5.389 16.95 8.335 34.785 7.886 52.527-.496 19.599-14.49 38.218-33.31 44.071-19.01 5.913-41.343-1.561-52.926-18.058-5.774-8.224-8.454-18.188-8.602-28.477-.406-22.938-11.946-45.198-30.487-58.817-13.985-10.272-31.339-15.587-48.802-15.715-9.556-.042-19.141-.535-28.428.736-36.224 4.956-67.606 37.509-66.512 75.669.53 18.492 13.441 34.661 29.419 46.524 11.124 8.258 23.421 14.721 36.286 20.173 4.252 1.802 9.216 2.858 13.831 4.563 3.281 1.212 6.524 2.523 9.731 3.919 0 0 .904.302 1.619.511 1.414.426 1.489.467 2.111.681 40.381 14.246 80.687 28.705 120.963 43.245 4.924 1.813 9.58 4.352 14.2 6.903 31.843 17.582 58.397 44.941 74.238 77.718 21.82 45.146 22.485 99.684 1.719 145.75-.901 1.998-1.841 3.977-2.811 5.942 0 0-1.772 3.486-3.709 6.242-9.723 13.833-27.289 21.736-44.128 19.825-20.347-2.31-38.192-19.063-41.485-39.674-1.604-10.038.483-20.424 4.887-29.629 6.971-14.679 9.496-31.416 6.628-47.311-4.423-24.515-21.554-45.874-44.04-57.348l-.208-.106-115.099-41.149s2.294.511-.413-.104a49.271 49.271 0 01-7.921-2.577c2.088.897-2.749-.813-6.615-2.137-4.433-1.519-8.829-3.139-13.192-4.847 0 0-2.716-.65-4.663-.984-36.378-6.254-75.994 12.681-92.038 47.405-9.758 21.118-9.631 46.534.777 67.236 7.929 15.771 21.338 28.537 37.185 36.577l124.366 43.841c.456.134.912.269 1.369.404 56.21 16.855 110.322 47.914 138.431 98.469 25.053 45.057 22.54 103.298-2.705 149.354-29.408 53.65-89.695 89.045-151.065 89.333-14.888.023-29.734.202-44.341-1.96-26.929-3.986-52.946-14.217-75.264-29.864-30.261-21.216-53.566-52.321-64.746-87.486-5.389-16.95-8.337-34.775-7.886-52.528.5-19.704 14.661-38.397 33.589-44.156 22.454-6.832 49.385 5.451 58.155 28.525 3.168 8.335 2.614 17.487 3.62 25.924 2.416 20.256 13.699 39.197 30.339 51.265 13.922 10.097 31.13 15.313 48.425 15.439 9.619.043 19.294.543 28.67-.769 25.919-3.626 49.626-20.997 60.167-45.043 6.863-15.655 8.92-34.223 1.247-49.736-10.174-20.571-31.514-33.906-52.698-43.908-10.753-5.077-21.965-9.292-33.329-12.638-.654-.198-1.307-.407-1.955-.628-42.981-15.035-85.942-30.125-128.833-45.415-5.875-2.139-11.377-5.227-16.826-8.343-28.616-16.365-52.709-40.595-68.307-69.523-28.369-52.616-27.135-119.488 5.293-172.432 16.585-27.077 40.73-49.422 68.62-64.217 0 0-2.885-4.355-5.084-7.918-23.617-38.281-27.213-87.577-11.599-131.161 16.818-46.943 55.325-85.433 102.365-102.758 19.005-7 39.253-10.573 59.542-10.668 6.039-.01 12.079-.009 18.118 0zm-5.296 246.597s1.039.456-.109-.049c-.023-.01.06.028.109.049z" fill-rule="nonzero"/></svg>