<svg xmlns="http://www.w3.org/2000/svg" width="1024" height="1024"><path d="M279.5 762.0417v71h-196v-71h196zm197-72q14 0 25 11t11 25v143q0 14-11 25t-25 11h-143q-14 0-25-11t-11-25v-143q0-15 11-25t25-11h143zm89-214v71h-482v-71h482zm-357-286v72h-125v-72h125zm732 572v71h-411v-71h411zm-536-643q15 0 26 10t10 26v142q0 15-10 25t-26 11h-142q-15 0-25-11t-11-25v-142q0-15 11-26t25-10h142zm358 286q14 0 25 10t10 25v143q0 15-10 25t-25 11h-143q-15 0-25-11t-11-25v-143q0-14 11-25t25-10h143zm178 71v71h-125v-71h125zm0-286v72h-482v-72h482z" fill="currentColor"/></svg>