<svg xmlns="http://www.w3.org/2000/svg" width="1024" height="1024"><path d="M704.6667 240h98l-40-122-6-26q-2-9-2-11h-2l-1 11-2 10q-2 10-5 16zm-254 576q0 6-6 13l-178 178q-5 5-12 5t-13-5l-179-179q-8-9-4-19.5t17-10.5h107V30q0-8 5-13t13-5h107q8 0 13 5t5 13v768h107q8 0 13 5t5 13zm466 66v130h-326v-50l206-295q7-11 12-16l6-5v-1h-8q-6 2-16 2h-130v64h-67V583h317v50l-206 296q-4 4-12 14l-6 7v1l8-1q5-2 16-2h139v-66h67zm50-501v60h-161v-60h42l-26-80h-136l-26 80h42v60h-160v-60h39l128-369h91l128 369h39z" fill="currentColor"/></svg>