<svg xmlns="http://www.w3.org/2000/svg" width="1024" height="1024"><path d="M414.1667 816q0 6-6 13l-178 178q-5 5-12 5t-13-5l-179-179q-8-9-4-19.5t17-10.5h107V30q0-8 5-13t13-5h107q8 0 13 5t5 13v768h107q8 0 13 5t5 13zm589 71v107q0 8-5 13t-13 5h-464q-8 0-13-5t-5-13V887q0-8 5-13t13-5h464q8 0 13 5t5 13zm-107-286v107q0 8-5 13t-13 5h-357q-8 0-13-5t-5-13V601q0-8 5-13t13-5h357q8 0 13 5t5 13zm-107-285v107q0 7-5 12t-13 6h-250q-8 0-13-6t-5-12V316q0-8 5-13t13-5h250q8 0 13 5t5 13zm-107-286v107q0 8-5 13t-13 5h-143q-8 0-13-5t-5-13V30q0-8 5-13t13-5h143q8 0 13 5t5 13z" fill="currentColor"/></svg>