<svg xmlns="http://www.w3.org/2000/svg" width="1024" height="1024"><path d="M704.6667 811h98l-40-122-6-26q-2-9-2-11h-2l-1 11-2 10q-2 9-5 16zm-254 5q0 6-6 13l-178 178q-5 5-12 5t-13-5l-179-179q-8-9-4-19.5t17-10.5h107V30q0-8 5-13t13-5h107q8 0 13 5t5 13v768h107q8 0 13 5t5 13zm516 137v59h-161v-59h42l-26-80h-136l-26 80h42v59h-160v-59h39l128-370h91l128 370h39zm-50-643v131h-326v-51l206-295q7-10 12-15l6-5v-2q-1 0-3 1t-5 0q-6 2-16 2h-130v64h-67V12h317v50l-206 295-12 15-6 5v2l8-2h155v-67h67z" fill="currentColor"/></svg>