<svg xmlns="http://www.w3.org/2000/svg" width="1024" height="1024"><path d="M509.76 12.0345q-87 0-168 29-84 30-152 87 86-69 194-90 106-20 209 10 106 32 185 111 66 66 99 152 33 83 30 172.5t-40 170.5q-14 41 12 68 16 16 41.5 16.5t42.5-16.5q3-3 8-10.5t7-13.5q35-90 34.5-187.5t-37.5-186.5q-38-93-110-165t-166-110q-91-37-189-37zm-409 274q-24 0-39 16-4 4-8 10-6 8-7 14-36 90-35 187.5t37 186.5q38 93 110 165 91 91 214 127 119 34 240 10 125-25 222-106-86 69-194 90-106 20-209-10-107-32-186-111-66-66-99-152-32-83-29.5-172.5t39.5-170.5q8-21 5-37.5t-17-30.5q-18-18-44-16z" fill="currentColor"/></svg>