<svg xmlns="http://www.w3.org/2000/svg" width="1024" height="1024"><path d="M16.5 425.5c-8-20.6667-2.6667-37.3333 16-50 18.6667-12.6667 49-18.6667 91-18h242l74-222v-1c9.3333-30 20.3333-52.6667 33-68 12.6667-15.3333 25.8333-23 39.5-23 13.6667 0 26.8333 7.6667 39.5 23 12.6667 15.3333 23.6667 38 33 68l1 1 73 222h242c42 0 72.3333 6 91 18 18.6667 12 24 28.6667 16 50s-29.3333 44-64 68l-5 4-190 135 75 224c12.6667 40 16.3333 70.3333 11 91-5.3333 20.6667-18.6667 31.3333-40 32-24.6667 0-54-12.6667-88-38l-2-2-3-1-189-136-195 139c-34.6667 26-64 39-88 39-20.6667 0-34-10.6667-40-32s-2.3333-52 11-92l75-224-190-135-2-3-3-1c-34-24.6667-55.3333-47.3333-64-68z" fill="currentColor"/></svg>