<svg xmlns="http://www.w3.org/2000/svg" width="1024" height="1024"><path d="M947 409L776 221q-25-26-61-26t-62 26q-16 16-22 38-26-20-58.5-17.5T517 267q-15 15-22 37-26-20-58.5-17.5T380 312q-15 16-21 37l-81-81q-26-25-62-24.5T155 269q-25 25-25 61t25 62l309 309-183 29q-37 5-62 33.5T194 830q0 28 20 48t48 20h429q50 0 95.5-19t80.5-54l72-71q35-36 54-81.5t19-95.5q0-47-17-90.5T947 409zm-40 312l-72 72q-28 29-65.5 44.5T691 853H262q-9 0-16-6.5t-7-16.5q0-21 14-36.5t35-18.5l228-36q6-1 11-5t7-10q3-15-6-24L187 359q-12-12-12-29t12.5-29.5q12.5-12.5 29-12.5t29.5 13l227 227q7 7 16.5 7t16-6.5Q512 522 512 512t-7-16l-92-93q-13-12-13-29t12.5-29.5Q425 332 442 332t29 12l93 93q7 7 16 7t16-6.5q7-6.5 7-16.5t-7-16l-47-47q-12-13-12-30t12-29q12-12 29.5-12t29.5 12l47 47v1h1q6 6 15.5 6t16-7q6.5-7 6.5-16t-7-16l-2-2q-12-12-12-29.5t12.5-29.5q12.5-12 29.5-12t28 12l170 187q26 28 40 63.5t14 73.5q0 41-15.5 78T907 721zM403 246q-25-55-75.5-87.5T217 126q-56 0-103 27.5t-74.5 74Q12 274 12 330q0 60 33 110.5t88 75.5q3 2 9 2 15 0 21-13 4-8 .5-17T151 475q-43-19-68-58.5T58 330q0-43 21.5-79.5t58-58Q174 171 217 171q47 0 86 25.5t58 68.5q5 8 13.5 11.5t17-.5q8.5-4 12-12.5T403 246z" fill="currentColor"/></svg>