<svg viewBox="0 0 1024 1024" xmlns="http://www.w3.org/2000/svg" fill-rule="evenodd" clip-rule="evenodd" stroke-linejoin="round" stroke-miterlimit="2"><path d="M191.352 195.3522V317.578c0 16.7131-6.2676 31.338-18.8028 43.8732-12.5352 12.5352-27.16 18.8028-43.8732 18.8028-16.7131 0-31.338-5.8502-43.8732-17.5493C72.2676 351.0056 66 335.9633 66 317.578V209.9996c0-.5515.1129-70.2535.3322-70.7687-.2219-2.1485-.3322-4.3334-.3322-6.5547 0-16.7131 5.8502-31.338 17.5493-43.8732 11.6991-12.5352 26.7414-18.8028 45.1267-18.8028h764.6472c18.3854 0 33.4277 6.2676 45.1268 18.8028 11.699 12.5352 17.5492 27.16 17.5492 43.8732 0 2.2601-.114 4.4826-.3447 6.6663.2282.4813.3447 70.147.3447 70.6571V317.578c0 16.7131-6.2676 31.338-18.8028 43.8732-12.5352 12.5352-27.16 18.8028-43.8732 18.8028-16.7131 0-31.338-5.8502-43.8732-17.5493-12.5352-11.6991-18.8028-26.7414-18.8028-45.1267V195.3522h-250.704v639.2952h50.1408c18.3854 0 33.4277 6.2676 45.1268 18.8028 11.699 12.5352 17.5492 27.16 17.5492 43.8732 0 16.7132-6.2676 31.338-18.8028 43.8732-12.5352 12.5352-27.1587 18.8028-43.8732 18.8028H403.197c-16.7133 0-31.338-6.2676-43.8733-18.8028-12.5352-12.5352-18.8028-27.16-18.8028-43.8732 0-16.7131 5.8502-31.338 17.5493-43.8732 11.6991-12.5352 26.7413-18.8028 45.1267-18.8028h51.3943V195.3522H191.352z"/></svg>