<svg xmlns="http://www.w3.org/2000/svg" viewBox="0 -200 1000 1000"><path fill="currentColor" d="M188.601-67.892c-24.6982.2344-48.3799 16.3184-57.5625 39.1865-7.335 18.2656-5.3564 39.9795 5.167 56.6162 11.1709 17.6592 31.911 29.0889 52.7568 29.0889h247.184v682.66c0 26.8135 19.1455 52.2422 44.623 59.8213 20.6133 6.1328 44.249.6777 60.0889-13.8916 12.6162-11.6016 20.0156-28.6445 20.1797-45.5654.7139-230.603.001-452.419.001-683.024h248.364c21.2256-.0674 41.5859-11.4297 52.7568-29.0889 10.5234-16.6367 12.502-38.3506 5.167-56.6162-9.1827-22.8682-32.8643-38.9521-57.5625-39.1865h-621.163z"/></svg>