<svg xmlns="http://www.w3.org/2000/svg" width="1024" height="1024"><path d="M298 744v108q0 22-16 37t-38 16H66q-23 0-38-16t-16-37V744q0-22 16-38t38-15h178q23 0 38 15t16 38zm0-285v107q0 22-16 38t-38 15H66q-23 0-38-15t-16-38V459q0-23 16-38t38-16h178q23 0 38 16t16 38zm714 285v108q0 22-16 37t-38 16H423q-23 0-38-16t-16-37V744q0-22 16-38t38-15h535q23 0 38 15t16 38zM298 173v107q0 22-16 38t-38 16H66q-23 0-38-16t-16-38V173q0-22 16-38t38-16h178q23 0 38 16t16 38zm714 286v107q0 22-16 38t-38 15H423q-23 0-38-15t-16-38V459q0-23 16-38t38-16h535q23 0 38 16t16 38zm0-286v107q0 22-16 38t-38 16H423q-23 0-38-16t-16-38V173q0-22 16-38t38-16h535q23 0 38 16t16 38z" fill="currentColor"/></svg>