<svg viewBox="0 0 1024 1024" xmlns="http://www.w3.org/2000/svg" fill-rule="evenodd" clip-rule="evenodd" stroke-linejoin="round" stroke-miterlimit="2"><path d="M476 595v274c0 10-3.667 18.333-11 25-7.333 6.667-15.667 10.333-25 11H155c-10 0-18.333-3.667-25-11-6.667-7.333-10.333-15.667-11-25V595c0-10 3.667-18.333 11-25 7.333-6.667 15.667-10.333 25-11h285c10 0 18.333 3.667 25 11 6.667 7.333 10.333 15.667 11 25zm429 1v273c0 10-3.667 18.333-11 25-7.333 6.667-15.667 10.333-25 11H583c-10 0-18.333-3.667-25-11-6.667-7.333-10.333-15.667-11-25V596c0-10 3.667-18.333 11-25 7.333-6.667 15.667-10.333 25-11h286c10 0 18.333 3.667 25 11 6.667 7.333 10.333 15.667 11 25zM476 155v286c0 9.333-3.667 17.667-11 25-7.333 7.333-15.667 11-25 11H155c-10 0-18.333-3.667-25-11-6.667-7.333-10.333-15.667-11-25V155c0-9.333 3.667-17.667 11-25 7.333-7.333 15.667-10.667 25-10h285c10 0 18.333 3.333 25 10 6.667 6.667 10.333 15 11 25zm429 0v285c0 9.333-3.667 17.667-11 25-7.333 7.333-15.667 10.667-25 10H583c-10 0-18.333-3.333-25-10-6.667-6.667-10.333-15-11-25V155c0-9.333 3.667-17.667 11-25 7.333-7.333 15.667-11 25-11h286c10 0 18.333 3.667 25 11 6.667 7.333 10.333 15.667 11 25z" fill-rule="nonzero"/></svg>