<svg xmlns="http://www.w3.org/2000/svg" width="1024" height="1024"><path d="M477.6035-30.7h68.04v201.69q78.57 13.77 142.56 51.84 68.85 41.31 107.73 104.49 42.93 63.18 52.65 143.37 8.91 77.76-16.2 151.47-25.92 76.14-81 128.79-37.26 40.5-94.77 66.42-46.17 21.87-110.97 35.64v201.69h-68.04V853.01q-64.8-13.77-110.97-35.64-57.51-25.92-94.77-66.42-55.08-52.65-81-128.79-24.3-73.71-15.39-151.47 8.91-79.38 51.03-142.56 39.69-63.99 108.54-105.3 63.18-38.07 142.56-51.84V-30.7zm-68.85 404.19q-4.86 65.61 66.42 114.21-38.07 9.72-58.32 17.01-33.21 12.15-53.46 28.35-24.3 20.25-32.4 49.41l-2.43 10.53q-5.67 32.4-4.86 47.79 1.62 25.92 19.44 38.88 55.08 2.43 123.93 2.43 41.31 0 123.93-.81l74.52-.81q29.16.81 33.21-31.59 3.24-17.82-3.24-54.27v-.81q-7.29-46.17-55.08-73.71-31.59-18.63-92.34-32.4 25.92-14.58 43.74-37.665t22.68-49.815q5.67-29.16-5.67-56.7-9.72-33.21-34.83-51.435t-62.37-19.035q-25.92 0-49.005 12.96t-37.665 36.045q-14.58 23.085-16.2 51.435z" fill="currentColor"/></svg>