<svg xmlns="http://www.w3.org/2000/svg" width="1024" height="1024"><path d="M831.475 481v95h-424v-95h424zm-582-247q-1 16 16 28-9 2-14 4-8 3-13.5 7t-7.5 11v3q-2 8-2 12 1 6 5 9 13 1 30 1 10 0 30-1h18q7 0 8-6t-1-15q-1-11-13-18-8-4-22-7 6-4 10-10t5.5-12.5q1.5-6.5-1.5-12.5-2-8-8-12.5t-15-4.5q-6 0-12 3t-9.5 8.5q-3.5 5.5-3.5 12.5zm33 211q19 3 35 12.5t26 25q10 15.5 12.5 34.5t-4 37.5q-6.5 18.5-19.5 30.5-9 10-23 16-11 6-27 9v49h-16v-49q-16-3-27-9-14-6-23-16-14-12-20-30.5t-3.5-37.5q2.5-19 12-34.5t26.5-25.5q15-9 35-12v-95q-16-3-27-9-14-6-23-16-14-12-20-30.5t-3.5-37.5q2.5-19 12-34.5t26.5-25.5q15-9 35-12h16q19 3 35 12.5t26 25q10 15.5 12.5 34.5t-4 37.5q-6.5 18.5-19.5 30.5-9 10-23 16-11 6-27 9v95zm-33 49q-1 16 16 28-9 2-14 4-8 3-13.5 7t-7.5 11v3q-2 8-2 12 1 6 5 9 13 1 30 1 10 0 30-1h18q7 0 8-6t-1-15q-1-11-13-18-8-4-22-7 6-4 10-10t5.5-12.5q1.5-6.5-1.5-12.5-2-8-8-12.5t-15-4.5q-6 0-12 3t-9.5 8.5q-3.5 5.5-3.5 12.5zm638-420h-750q-26 0-44 18t-19 45v750q0 26 19 45t44 18h750q25 0 44-18t18-45V137q0-26-18-45t-44-18zm0 813h-750V137h750v750zm-53-668v95h-424v-95h424z" fill="currentColor"/></svg>