<svg xmlns="http://www.w3.org/2000/svg" width="1024" height="1024"><path d="M0 511.944q0-65.398 25.98-124.525 25.98-59.1268 68.0856-102.1283 42.1055-43.0014 102.1283-68.0855 60.0228-25.0842 123.6291-25.0842h384.3251q64.5021 0 123.629 25.0842 59.127 25.0841 102.1284 68.0855 43.0015 43.0014 68.0856 102.1284 25.0842 59.127 25.98 124.525.8959 65.3979-25.98 124.5248-26.876 59.127-68.0856 101.2325-41.2097 42.1056-102.1283 68.9814-60.9187 26.876-123.629 25.0842H319.823q-64.5021 0-123.629-25.0842-59.127-25.0841-102.1284-68.9814Q51.0642 693.8041 25.98 636.469.896 579.1337 0 511.944zm704.1481 256.2167q51.96 0 99.4408-20.6048 47.4807-20.6048 81.5235-54.6476t54.6476-81.5235q20.6049-47.4808 19.709-99.4408-.8958-51.96-19.709-99.4408-18.8131-47.4807-54.6476-81.5235-35.8345-34.0427-81.5235-54.6476-45.689-20.6048-99.4408-20.6048-53.7518 0-99.4408 20.6048-45.689 20.6048-81.5235 54.6476t-54.6476 81.5236q-18.8131 47.4807-20.6048 99.4407-1.7918 51.96 20.6048 99.4408 22.3966 47.4807 54.6476 81.5235 32.2511 34.0428 81.5235 54.6476 49.2725 20.6049 99.4408 20.6049z" fill="currentColor"/></svg>