<svg xmlns="http://www.w3.org/2000/svg" width="1024" height="1024"><path d="M576.0687 511.8814q0-51.96-20.6049-99.4407-20.6048-47.4808-54.6476-81.5235-34.0428-34.0428-81.5235-54.6477-47.4808-20.6048-99.4408-20.6048-51.96 0-99.4408 20.6048-47.4807 20.6049-81.5235 54.6477-34.0428 34.0427-54.6476 81.5235-20.6049 47.4807-20.6049 99.4407 0 51.96 20.6049 99.4408 20.6048 47.4807 54.6476 81.5235t81.5235 54.6476q47.4808 20.6049 99.4408 20.6049 51.96 0 99.4408-20.6049 47.4807-20.6048 81.5235-54.6476t54.6476-81.5235q20.6048-47.4807 20.6048-99.4408zm383.4292 0q0-51.96-19.709-99.4407-19.709-47.4808-54.6476-81.5235-34.9386-34.0428-81.5235-54.6477-46.5849-20.6048-99.4408-20.6048H510.6707q60.0228 44.7931 94.9614 111.9828 34.9387 67.1897 34.0428 144.234-.8959 77.0441-34.0428 144.2338-33.147 67.1897-94.9614 111.9829H704.177q51.96 0 99.4408-20.6049 47.4807-20.6048 81.5235-54.6476t54.6476-81.5235q20.6048-47.4807 19.709-99.4408zm64.5021 0q0 64.5022-25.98 124.525-25.98 60.0228-68.0856 101.2325-42.1055 41.2096-102.1283 68.9814-60.0228 27.7717-123.629 25.0841H319.8518q-64.5021 0-123.629-25.0841-59.127-25.0842-102.1284-68.9814-43.0014-43.8973-68.0856-101.2325Q.9248 579.071.029 511.8814q-.8959-67.1897 25.98-124.5249t68.0856-102.1283q41.2097-44.7932 102.1283-68.0856 60.9187-23.2924 123.6291-25.0842H704.177q64.5021 0 123.629 25.0842 59.127 25.0841 102.1284 68.0856 43.0014 43.0014 68.0856 102.1283 25.0841 59.127 25.98 124.525z" fill="currentColor"/></svg>