<svg xmlns="http://www.w3.org/2000/svg" width="1024" height="1024"><path fill="currentColor" d="M357 786q0-29-21-51t-50-21-50 21-22 51 22 50 50 21 50-21 21-50zM143 500h214V357h-88q-7 0-12 5L148 471q-5 5-5 12v17zm714 286q0-29-21-51t-50-21-50 21-22 51 22 50 50 21 50-21 21-50zm143-607v571q0 8-2 15t-8 10-9 6-13 4l-13 1h-26q0 59-42 101t-101 42-101-42-42-101H429q0 59-42 101t-101 42-101-42-42-101H80q-4 0-12-1t-13-4l-9-6q-4-3-8-10t-2-15q0-15 10-25t25-11V495q0-6 2-19l3-21q1-8 8-17l13-17 110-110q11-11 28-18t33-7h89V179q0-15 11-26t25-10h571q15 0 25 10t11 26z"/></svg>