<svg xmlns="http://www.w3.org/2000/svg" width="1024" height="1024"><path d="M0 834.1759q24.9756 2.4976 49.9512 2.4976 146.5236 0 261.4114-89.9122-68.2667-.8326-122.3805-41.626-54.1138-40.7935-74.0943-104.065 16.6504 3.33 39.1285 3.33 29.1382 0 55.7788-7.4927-73.2618-14.1528-120.7154-72.4293Q41.626 466.202 40.7935 391.2751v-2.4976q44.1236 24.9756 95.7398 25.8082-43.291-28.3057-68.2666-74.9269-24.9756-46.6211-25.8082-99.9024 0-56.6114 29.1383-105.73 78.2569 97.4048 191.4796 154.8487 113.2228 57.4439 241.431 64.9366-5.8277-27.4732-5.8277-48.2862 0-86.5821 61.6065-148.1886 61.6065-61.6065 149.0211-61.6065 90.7447 0 153.1838 66.6016 72.4292-14.9854 133.2032-51.6163-23.3106 75.7594-91.5772 116.5529 60.774-7.4927 119.8829-33.3008-39.961 62.439-104.065 109.0601v27.4732q0 84.0846-24.1431 168.1691-24.1431 84.0846-74.9269 161.509-50.7837 77.4243-120.7154 137.3658-69.9317 59.9415-167.3366 95.7398-97.4049 35.7984-210.6276 34.9659-173.9968 0-322.1854-94.0748z" fill="currentColor"/></svg>