<svg xmlns="http://www.w3.org/2000/svg" width="1024" height="1024"><path d="M0 768.2132q17.0525-5.9684 51.1574-18.7578l58.831-22.1681q24.726-9.3789 42.631-18.7577 31.5471-16.1999 48.5996-47.747 17.0524-31.547 17.905-64.7992 0-23.0209-26.4312-54.568-16.1999-17.905-28.1366-51.1573-38.368-15.3472-38.368-64.7993 0-36.6628 11.9367-52.01-4.2631-33.2523-7.6736-69.915-4.2631-46.8943 22.1682-92.0833 26.4313-45.189 71.6203-71.6204 45.189-26.4313 93.7885-27.2839 36.6628 0 72.473 16.1998 35.8101 16.1999 62.2414 42.6312t40.926 61.3888q14.4945 34.9576 11.9366 70.7677-3.4105 46.8943-6.821 69.915 11.9368 16.2 11.9368 52.01 0 49.4522-38.368 64.7994-12.7894 34.9575-27.284 51.1574-27.284 31.547-27.284 54.5679 0 33.2522 17.0525 64.7993 17.0525 31.547 49.4522 47.7469 24.726 12.7893 78.4413 32.3996 53.7152 19.6104 96.3463 36.6628 42.6312 17.0525 56.2731 32.3997 15.3472 14.4946 23.8735 40.0733 8.5262 25.5786 8.5262 43.4837l.8526 17.905H0V768.2133zm601.099-254.9343q0-28.9891 10.2316-42.6311-4.2632-27.284-5.9684-57.1257-3.4105-38.368 17.905-75.8835 21.3157-37.5154 58.831-61.3888 37.5155-23.8735 76.7361-23.0208 39.2206.8526 75.8834 23.0208 36.6628 22.1682 58.831 61.3888 22.1682 39.2207 18.7577 75.8835-1.7052 29.8418-6.821 57.1257 10.2315 13.642 10.2315 42.6311 0 40.926-30.6944 52.8626-10.2315 28.1366-23.0208 42.6312-7.6736 8.5262-11.0841 13.642-3.4105 5.1157-7.6736 13.642-4.2632 8.5261-3.4105 17.0524 0 27.284 14.4946 52.8626 14.4945 25.5787 40.0732 39.2206 14.4946 7.6736 35.8102 16.1999 21.3156 8.5262 51.1574 18.7577 29.8418 10.2314 42.6311 16.1998v115.104H807.4338v-9.3788q0-5.9683-2.5579-22.1682-2.5578-16.1998-5.9683-30.6944-3.4105-14.4946-12.7894-32.3996-9.3788-17.9051-19.6103-28.1366-19.6103-21.3156-45.189-37.5154t-67.3572-31.547q23.0208-28.9892 23.0208-66.5046 0-8.5263-4.2631-17.0525l-6.821-13.642q-2.5579-5.1157-10.2315-13.642-11.9367-12.7893-23.0208-41.7784-31.547-13.642-31.547-53.7153z" fill="currentColor"/></svg>