<svg xmlns="http://www.w3.org/2000/svg" width="1024" height="1024"><path d="M0 308.2722q49.1448-58.0802 98.2897-103.651 49.1448-45.5706 85.7801-69.6962 36.6353-24.1257 64.335-38.4224 27.7-14.2967 42.8901-18.7644l15.1903-3.5742q10.7225-1.787 21.445-1.787 16.9773 0 31.274 5.3612 23.2321 8.9354 38.4223 30.3805 15.1902 21.445 25.9128 49.1448 10.7225 27.6998 18.7644 64.3351 8.0418 36.6353 13.4031 69.6963 5.3613 33.0611 12.5096 70.59l12.5096 63.4414q28.5934 111.6929 46.4642 158.1571 17.8709 46.4642 36.6353 47.3578 21.445 0 59.8673-50.0384 38.4224-50.0384 83.0995-134.925 23.2321-42.89 23.2321-81.3123 0-11.6161-1.787-20.5515-8.042-46.4643-45.5707-58.0803-9.829-3.5742-21.445-3.5742-31.274 0-74.1641 23.2321 19.658-116.1605 119.7347-186.7504 75.9512-53.6126 155.4765-53.6126 10.7225 0 21.445.8936 91.1413 7.1483 124.2024 80.4188Q1024 180.4956 1024 225.1728q0 25.9127-5.3613 54.506-16.0837 91.1414-61.6544 185.857-45.5707 94.7155-100.9703 167.0925-55.3997 72.377-118.8412 138.4991-63.4416 66.1222-109.9058 105.438-46.4642 39.316-81.3124 60.761-37.5288 21.445-69.6963 21.445-32.1676 0-62.548-18.7644-30.3805-18.7644-50.0384-42.89-19.658-24.1257-33.9546-50.932-16.0838-33.9546-86.6737-267.1693-70.5899-233.2147-86.6736-250.192-.8936-1.787-3.5742-3.5741-2.6806-1.7871-11.616-4.4678-8.9355-2.6806-21.445 0-12.5097 2.6807-33.0612 12.5096-20.5514 9.829-44.677 29.487z" fill="currentColor"/></svg>