<svg xmlns="http://www.w3.org/2000/svg" width="1024" height="1024"><path fill="currentColor" d="M772 484h-48q-1-80-24-160h26q7 0 11.5-4.5t4.5-12-4-11.5-12-4h-37q-13-37-35-72-4-7-10.5-8t-12.5 3-7 10 3 12q16 26 27 56H516v-80q0-8-4-12t-11.5-4-12 4-4.5 12v80H346q6-15 22-45l5-11q5-5 5-11.5t-4.5-11-11-4.5-11.5 5q-3 1-3 6-19 29-35 72h-37q-7 0-11.5 4.5T260 309t4.5 11.5T276 325h25q-24 79-24 161h-48q-7 0-11.5 4.5T213 502t4.5 11.5T229 518h48q3 80 24 160h-27q-7 0-11.5 4t-4.5 11.5 4.5 12T274 710h37q17 43 35 72 5 8 15 8 2 0 7-2l1-1q6-4 7-10.5t-3-12.5q-16-25-27-56h138v80q0 7 4.5 11.5t12 4.5 11.5-4.5 4-11.5v-80h138q-8 20-27 56-4 6-3 12.5t7 10.5q6 3 11.5 1.5t9.5-6.5q15-23 36-72h36q7 0 11.5-4.5T740 694t-4.5-11.5T724 678h-25q24-91 24-160h48q7 0 11.5-4.5T787 502t-4.5-12.5T772 484zM665 324q23 73 26 160H514V324h151zm-332 0h151v160H308q0-80 25-160zm0 352q-23-75-25-160h176v160H333zm332 0H514V516h177q0 83-26 160zm111-444q-73-75-173-103-97-27-195-3-101 25-176 98-3 5-8 8-71 73-96 172-24 96 0 192 25 99 96 172 73 75 173 103 97 27 195 3 101-24 176-97l9-9q70-73 95-172 25-96 0-192-25-99-96-172zm-23 513q-67 69-159 94-89 25-178 3-93-23-161-89-52-50-80-115.5T147 500q0-96 48-179 47-79 127-126 82-48 178-48t178 48q80 47 127 126 48 83 48 179 0 68-26 131.5T753 745z"/></svg>