<svg xmlns="http://www.w3.org/2000/svg" width="64" height="64"><path d="M57.6 6.4005c1.793 0 3.307.639 4.545 1.92 1.236 1.279 1.855 2.773 1.855 4.479v38.4c0 1.793-.619 3.307-1.855 4.545-1.238 1.236-2.752 1.855-4.545 1.855H6.4c-1.707 0-3.2-.619-4.48-1.855C.64 54.5065 0 52.9925 0 51.1995v-38.4c0-1.705.64-3.199 1.92-4.479 1.28-1.281 2.773-1.92 4.48-1.92h51.2zm-42.88 6.016c-.683 0-1.259.234-1.728.703-.47.471-.704 1.025-.704 1.664 0 .641.234 1.195.704 1.664.469.471 1.045.705 1.728.705 1.621 0 2.432-.811 2.432-2.434 0-.682-.234-1.236-.704-1.662-.469-.427-1.045-.64-1.728-.64zm-8.832 2.303c0 .684.234 1.26.704 1.729.47.471 1.045.705 1.728.705 1.622 0 2.432-.811 2.432-2.434 0-.682-.234-1.236-.704-1.662-.469-.428-1.045-.641-1.728-.641s-1.258.234-1.728.703c-.469.471-.704 1.004-.704 1.6zm51.841 36.48v-29.439H6.4v29.439h51.329zm0-34.558v-3.842H19.2v3.842h38.529z"/></svg>