<svg xmlns="http://www.w3.org/2000/svg" width="1024" height="1024"><path d="M80.5 739q0-54 6-162 4-53 38-87t87-36q100-5 301-5t301 5q53 3 87 36t38 87q5 90 5 162t-5 162q-4 53-38 87t-87 36q-100 5-301 5t-301-5q-53-3-87-36t-38-87q-6-108-6-162zm67-141h61v326h59V598h61v-55h-181v55zm65-603h60l38 152h4l36-152h60l-46 148q-23 73-23 75v158h-59V225q-2-14-5-26t-9-26q-6-14-9-25zm116 885q0 48 36 48 32 0 61-35v31h52V643h-52v214q-21 21-31 21-14 0-14-19V643h-52v237zm79-575V159q0-34 22-53T485 87.5q33.5.5 54.5 20.5t20 53v145q0 36-20 56T484 382.5q-35.5.5-55.5-21.5t-21-56zm54 7q0 23 22.5 23t22.5-25V157q0-9-7-15t-16-6q-9 0-15 5t-7 15v156zm67 612h53v-21q20 25 50 25 47 0 47-62V710q0-71-51-71-25 0-46 27V543h-53v381zm53-53V695q11-11 22-11 22 0 22 28v148q0 24-19 24-14 0-25-13zm23-539V95h52v215q0 19 13.5 19t31.5-21V95h52v281h-52v-31q-29 35-61 35-36 0-36-48zm114 513q0 38 19 63t57 24q78 0 78-87v-21h-54l1 13q1 11-1 17t-2 14q0 8-7 12t-14 3q-23 0-23-40v-53h100v-72q0-38-18-60t-57-22q-36 0-57 23t-22 59v127zm54-99v-30q0-31 23-31t23 31v30h-46z" fill="currentColor"/></svg>