<svg xmlns="http://www.w3.org/2000/svg" width="1024" height="1024"><path d="M661.5 508v130h-326v-50l206-295q7-11 12-16l6-5v-1h-8q-6 2-16 2h-130v64h-67V209h317v50l-206 296q-4 4-12 14l-6 7v1l8-1q5-2 16-2h139v-66h67zm-323 212v130h-326v-50l206-295q7-11 12-16l6-5v-1h-8q-6 2-16 2h-130v64h-67V421h317v50l-206 296q-4 4-12 14l-6 7v1l8-1q5-2 16-2h139v-66h67zm673-421v130h-326v-50l206-295q7-11 12-16l6-5v-1h-8q-6 2-16 2h-130v64h-67V0h317v50l-206 296q-4 4-12 14l-6 7v1l8-1q5-2 16-2h139v-66h67z" fill="currentColor"/></svg>